<svg xmlns="http://www.w3.org/2000/svg" width="761.434" height="346.31" viewBox="0 0 761.4339 346.3101"><g transform="translate(-336.58 -454.038)"><path d="M946 703.978s6.026-3.193 9.358-27.85M955.664 668.105l9.884 5.22 49.755 26.21M957.107 664.885l64.416 32.65M1022.19 697.76l-33.048 68.28-2.05 3.85c.24.98.906 1.95.478 3.453-.304.814-.96 1.363-1.586 1.936l1.11 4.22 20.435 8.884.077 2.04h-47.332l.164-1.374 19.546-8.44 1.554-5.11s-4.443-5.553 2.22-6.885l1.87-4.71 29.45-63.48" fill="none" stroke="#e8b92c" stroke-width="2" stroke-linecap="round" stroke-linejoin="round"/><path d="M955.414 675.935c.085-1.562.328-4.895-.75-6.164l3-6.718" fill="none" stroke="#e8b92c" stroke-width="2" stroke-linecap="round" stroke-linejoin="round"/><path d="M957.774 663.108l2.443-3.11-1.777-3.554.666-2.22s-2.22-2.445-4.22-.446H950l-5.554 9.33c-1.29-.01-2.957.288-5.247 1.124 0 0-17.854 9.537-23.63 19.09M915.374 683.323c-.066 0-.517 3.134.942 5.58 0 0 10.694 17.324 29.384 15.125-7.374-11.95-30.326-20.705-30.326-20.705z" fill="none" stroke="#e8b92c" stroke-width="2" stroke-linecap="round" stroke-linejoin="round"/><rect ry="2.171" rx="2.171" y="-1031.299" x="790.822" height="93.065" width="16.877" transform="rotate(90)" fill="none" stroke="#e8b92c" stroke-width="1.5" stroke-linecap="round" stroke-linejoin="round"/><rect width="23.793" height="96.205" x="883.963" y="711.521" rx="3.06" ry="2.244" fill="none" stroke="#e8b92c" stroke-linecap="round" stroke-linejoin="round"/><path d="M981.692 775.504s1.446 1.837 4.43-.362" fill="#ccc" stroke="#e8b92c" stroke-width="2" stroke-linecap="round" stroke-linejoin="round"/><g transform="matrix(1.03885 -.03628 .03628 1.0376 -71.635 -2.708)" stroke="#e8b92c" stroke-width=".927" fill="none" stroke-linecap="round" stroke-linejoin="round"><path d="M835.314 799.763c-.285-.33-.693-.648-.83-1.168-.292-1.09.114-2.633.114-2.633l15.17-43.486c1.308-2.766 3.528-3.24 3.528-3.24l11.928-1.42c5.057-.55 3.714 3.186 3.714 3.186l-15.32 46.286s-.59 2.142-3.804 3.482l-12.574-.375s-1.737-.305-2.568-1.376"/><ellipse cx="1034.087" cy="818.024" rx="1.667" ry="1.831" transform="skewX(-13.472) scale(1 .97248)" stroke-width=".94"/><path d="M864.83 755.66l-14.586 1.13-12.12 34.248 14.624.08z"/><ellipse cx="1066.249" cy="781.892" rx=".536" ry=".556" transform="skewX(-15.66) scale(1 .9629)" stroke-width=".945"/><rect width="3.305" height=".833" x="1031.907" y="842.441" rx=".342" ry=".353" transform="matrix(.99755 -.06998 -.20495 .97877 0 0)" stroke-width=".945"/><path d="M834.846 799.206s1.52 2.314 3.396 2.206l14.143.697s2.602-.242 3.562-2.787l15.24-46.392s2.034-4.227-4.69-5.165"/><path d="M854.086 801.575s0 4.33-4.26 4.937l-18.816-1.19s-.375.015-.455.805c-.203 1.683-.272 2.508.69 2.46l18.316 1.163 5.664-.037 9.59-.747M863.84 775.355s.342.455.153 1.326c-.19.872-2.652 8.145-2.652 8.145s.04 2.387.72 2.955c0 0 6.03 9.686 6.044 9.985 0 0 4.374 9.56-3.24 11.152"/><path d="M850.015 806.53c.152.04 2.765 1.364 5.114 1.023 0 0 11.136-.416 11.25-.795 0 0 5.87-1.932-5.57-17.842 0 0-1.005-.28-1.3.04"/></g><path fill="#e8b92c" d="M883.866 719.84h23.865v1.724h-23.864zM923.832 686.886a10.707 3.298 32.083 0 0-.296 4.152 10.707 3.298 32.083 0 0 12.77 8.132 10.707 3.298 32.083 0 0 4.2-1.25l-16.46-11.028a10.707 3.298 32.083 0 0-.214-.006z"/><g transform="translate(.875 -.25)" fill="none"><rect transform="rotate(-7.03)" width="16.877" height="93.065" x="812.057" y="822.88" rx="2.171" ry="2.171" stroke="#e8b92c" stroke-linecap="round" stroke-linejoin="round"/><path d="M907.884 723.99l16.178-1.422.15 1.72-16.177 1.42z"/></g><path d="M1052.566 760.41s-1.786 22.445 6.11 41.17M1080.545 802.62s-10.588 3.653-21.903-.98" fill="none" stroke="#e8b92c" stroke-width="1.073" stroke-linecap="round" stroke-linejoin="round"/><g fill="none" stroke="#e8b92c" stroke-width=".71" stroke-linecap="round" stroke-linejoin="round"><path d="M831.216 770.7s4.42.614 4.393 2.697c.278.768.398 8.555-6.355 10.06" transform="matrix(1.1592 0 0 1.37093 123.933 -284.895)"/><path d="M827.415 788.644s1.244-1.226 1.796-2.06c0 0 5.986-1.773 8.39-7.59 0 0 3.57-10.246-6.283-10.9" transform="matrix(1.1592 0 0 1.37093 123.933 -284.895)"/></g><path d="M1068.3 782.3a2.69 2.69 0 0 0-1.267.22c-.154-.276-.307-.52-.345-.696-.043-.204-.084-.33-.073-.57.01-.24.124-.576.12-.602-.01-.027-.044-.152-.33-.173-.288-.023-.53.02-.553.094a2.958 2.958 0 0 0-.085.42c-.028.26-.475 1.166-.734 1.64-.112-.2-.21-.373-.24-.508-.042-.205-.083-.33-.072-.57.012-.24.125-.576.12-.602-.01-.027-.043-.152-.33-.173-.287-.02-.53.02-.552.096-.022.074-.04.25-.085.42-.046.17-.613 1.694-.762 2.087-.076.202-.143.362-.19.472 0 0 0 .006-.01.02l-.067.145v.004c-.032.07-.07.132-.09.13-.014 0-.06-.192-.03-.447.06-.537.237-1.368.232-1.398 0-.016.033-.16-.18-.25-.21-.09-.273.032-.292.03-.018 0-.027.043-.027.043s.15-.937-.51-.98c-.412-.027-.943.392-1.19.784l-.916.467c-.147.077-.298.154-.44.226l-.034-.037c-.868-.91-2.393-1.614-2.426-2.765-.01-.42.04-1.515 2.597-2.685 2.104-.95 3.875-.535 4.233.156.51.984-.71 2.674-2.957 2.786-.857.04-1.338-.325-1.463-.458-.13-.14-.15-.15-.192-.125-.07.034-.013.156.02.226.08.182.386.516.87.7.43.165 1.45.307 2.637-.093 1.33-.448 2.28-1.87 1.862-3.14-.42-1.288-2.54-1.84-4.453-1.26-1.138.345-2.355.925-3.2 1.73-1 .955-1.1 1.836-1 2.214.363 1.343 2.245 2.323 3.022 3.01l-.094.048c-.347.158-1.668.798-1.95 1.546-.318.848.187 1.504.494 1.607.95.322 1.87-.085 2.32-.825.45-.74.303-1.75.03-2.225 0-.006-.01-.01-.013-.017l.27-.15c.176-.098.35-.19.5-.263-.07.24-.11.527-.107.945 0 .493.255 1.147.54 1.417.126.118.264.13.353.135.306.02.423-.23.552-.524.156-.362.29-.785.29-.785s-.114 1.16.46 1.197c.207.013.396-.247.478-.38v.004s0-.007.014-.026l.03-.053-.002-.004c.07-.142.232-.464.465-1 .3-.694.573-1.566.573-1.566s.05.22.186.59c.08.217.23.46.353.693-.075.113-.12.175-.12.175v.004c-.062.086-.127.178-.2.268-.256.323-.562.693-.6.803-.044.13-.023.23.088.315.08.063.217.08.354.08.254-.002.43-.053.514-.087.134-.04.29-.106.43-.21.263-.19.408-.475.36-.868a2.038 2.038 0 0 0-.216-.645c.023-.035.043-.07.067-.106.387-.62.67-1.31.67-1.31s.048.22.185.59c.067.187.19.394.3.595-.386.312-.61.69-.68.942-.124.468.022.692.268.758.112.03.264-.012.374-.054a1.45 1.45 0 0 0 .462-.218c.262-.19.506-.462.458-.855a1.868 1.868 0 0 0-.163-.534c.34-.125.788-.177 1.372-.07 1.252.226 1.56 1.023 1.542 1.35-.02.325-.266.487-.348.537-.08.05-.108.066-.098.106.015.058.057.058.13.053.1-.013.63-.225.602-.828-.024-.77-.823-1.663-2.112-1.738zm-9.3 2.64c-.374.425-.934.56-1.193.398-.28-.172-.23-.833.237-1.28a5.31 5.31 0 0 1 .907-.666c.058-.033.142-.08.243-.14l.027-.013.06-.036c.24.696.112 1.287-.28 1.735zm2.828-1.865c-.115.343-.34 1.226-.527 1.165-.158-.053-.31-.743-.145-1.404.084-.333.288-.722.413-.87.203-.24.444-.308.512-.2.087.138-.182 1.094-.252 1.31zm2.57 1.354c-.056.027-.112.044-.14.027-.018-.012.023-.05.023-.05s.283-.318.393-.463c.063-.085.138-.184.217-.297v.034c.033.404-.33.65-.494.75zm1.872-.317c-.047-.035-.048-.14.074-.46.047-.124.165-.33.38-.524a.83.83 0 0 1 .062.244c.038.508-.305.674-.515.74z" fill="#e8b92c"/><g fill="#e8b92c"><path d="M1074.487 796.806c-.148-.01-.288.052-.415.187a.957.957 0 0 0-.247.506.802.802 0 0 0 .058.524c.076.146.19.224.34.233.137.008.27-.054.397-.187a.964.964 0 0 0 .247-.507.8.8 0 0 0-.058-.525c-.077-.146-.184-.223-.323-.232zM1077.03 796.963c-.148-.01-.288.052-.416.187a.96.96 0 0 0-.246.505.81.81 0 0 0 .057.526c.077.147.19.224.34.234.138.008.27-.054.398-.187a.962.962 0 0 0 .248-.507.798.798 0 0 0-.058-.525c-.077-.147-.182-.223-.323-.232z"/><path d="M1079.182 795.182s.087-.23.122-.64c.04-.412.02-.793-.056-1.145 0 0-.075.008-.217.035-.14.026-.377.08-.71.2-.326.122-.676.286-1.047.49-.213-.077-.542-.13-.99-.16-.428-.025-.77-.013-1.026.037-.633-.552-1.187-.87-1.67-.952a4.315 4.315 0 0 0-.467 1.114c-.114.406-.11.644-.11.644-.474.406-.75 1.02-.844 1.53-.072.398-.127.756-.096 1.08.032.322.1.588.2.794a1.9 1.9 0 0 0 .42.555c.174.166.34.286.498.366.157.083.34.148.555.2.21.05.37.082.484.095a21.712 21.712 0 0 0 2.092.13c.114 0 .283-.01.508-.036.227-.025.432-.067.614-.126.182-.06.39-.157.62-.297.232-.135.433-.3.61-.492a3.1 3.1 0 0 0 .484-.752c.147-.313.224-.672.296-1.07.09-.495.043-1.134-.27-1.6zm-1.763 3.763c-.494.186-1.177.23-2.062.177l-.034-.003c-.886-.056-1.536-.183-1.943-.426-.407-.242-.55-.698-.428-1.364.072-.4.27-.712.59-.943.14-.1.3-.164.492-.197.188-.03.355-.024.51-.01.152.017.36.06.63.097.27.038.468.08.67.09.19.013.45-.004.86-.01.412-.01.716-.006.904.038a.83.83 0 0 1 .48.274c.24.275.325.607.254.993-.12.667-.432 1.095-.923 1.282z"/></g><path d="M1087.14 760.41s1.423 23.396-6.473 42.122" fill="none" stroke="#e8b92c" stroke-width="1.073" stroke-linecap="round" stroke-linejoin="round"/><path d="M1077.963 741.87l1.163.337 1.164.336.248-3.04.248-3.04-1.412 2.705zm0 0l2.326.674-4.864 17.375c-.677-.433-1.832-.116-2.596-.508zM1089.365 745.173l1.09.528 1.09.528.758-2.954.757-2.954-1.847 2.427zm0 0l2.18 1.054-7.074 14.617a15.375 29.976-76.05 0 1-2.168-1.082l7.063-14.588z" fill="#e8b92c"/><path d="M1062.422 736.67c1.54 3.516.63 7.232-2.475 7.406-2.722.397-3.707-4.133-3.735-6.044.347-3.872 5.102-3.728 6.21-1.362zM1044.498 740.178c-.664 1.76.223 5.292 3.424 6.725 2.262.314 4.095.36 3.673-3.58-.195-5.323-5.94-6.83-7.097-3.145zM1060.777 759.717l-1.253-4.13-.655-2.427M1054.725 754.297l2.02 4.95M1059.41 755.41l-3.838-1.938" fill="none" stroke="#e8b92c" stroke-width=".895" stroke-linecap="round" stroke-linejoin="round"/><path d="M1055.506 752.487c.333 1.72-1.073 1.9-1.073 1.9s-.902-3.95-3.424-5.334c-1.332-.553-2.572-.03-4.102-.276-3.492-1.5-4.756-4.34-5.028-7.233.152-5.964 6.677-7.797 9.393-4.557 2.19 3.48 1.818 7.653 3.26 12.13.313.83.947 2.822.973 3.37z" fill="none" stroke="#e8b92c" stroke-width=".895" stroke-linecap="round" stroke-linejoin="round"/><circle cx="623.304" cy="1141.918" r=".732" transform="rotate(-25.78)" fill="none" stroke="#e8b92c" stroke-width=".895" stroke-linecap="round" stroke-linejoin="round"/><path d="M1057.655 751.964c.522 1.67 1.846 1.164 1.846 1.164s-1.08-3.907.485-6.32c.91-1.118 2.25-1.246 3.48-2.188 2.363-2.976 2.13-6.075.996-8.75-2.96-5.18-9.575-3.7-10.43.44-.276 4.103 2.03 7.6 2.885 12.227.117.88.503 2.932.74 3.427z" fill="none" stroke="#e8b92c" stroke-width=".895" stroke-linecap="round" stroke-linejoin="round"/><g fill="#e8b92c"><path d="M1074.65 768.92l1.287-.723c.177.408.342.754.845.754.482 0 .81-.187.905-.92l.65-4.988h1.465l-.65 5.008c-.198 1.52-1.18 2.21-2.478 2.21-1.173 0-1.775-.607-2.025-1.34M1079.855 768.763l1.284-.692c.247.515.607.892 1.33.892.607 0 1.034-.304 1.09-.723.064-.504-.31-.682-.943-.975l-.346-.158c-1-.45-1.627-1.016-1.472-2.21.143-1.1 1.09-1.938 2.4-1.938.932 0 1.56.323 1.932 1.172l-1.238.733c-.193-.45-.442-.628-.86-.628-.43 0-.738.272-.784.628-.058.44.192.62.785.89l.346.158c1.176.534 1.807 1.08 1.648 2.305-.172 1.32-1.303 2.043-2.696 2.043-1.362 0-2.158-.65-2.477-1.497"/></g><path d="M1069.255 759.25c-9.208 0-16.673.465-16.676 1.04 0 .575 7.748-.808 16.96-.808s17.635 1.3 17.633.725c0-.575-8.71-.958-17.918-.958z" fill="none" stroke="#e8b92c" stroke-width="1.073" stroke-linecap="round" stroke-linejoin="round"/><path d="M1081.23 740.734l1.203.14 1.203.138-.258-3.038-.258-3.04-.945 2.9zm0 0l2.406.28-2.22 19.177a15.375 29.976 80.474 0 1-2.337-.86l2.15-18.596z" fill="#e8b92c"/><path d="M1057.574 751.786l.136 2.724" fill="none" stroke="#e8b92c" stroke-width=".895" stroke-linecap="round" stroke-linejoin="round"/><text y="-803.64" x="853.772" style="line-height:125%;-inkscape-font-specification:'Lato Heavy'" transform="rotate(81.743)" font-weight="900" font-size="5.48" font-family="Lato" letter-spacing="1" word-spacing="0" fill="#e8b92c"><tspan y="-803.64" x="853.772">Web</tspan><tspan y="-796.79" x="853.772">Performance</tspan></text><text transform="rotate(90.195)" style="line-height:125%;-inkscape-font-specification:'Lato Heavy'" x="723.076" y="-900.454" font-weight="900" font-size="6.03" font-family="Lato" letter-spacing="1.1" word-spacing="0" fill="#e8b92c"><tspan x="723.076" y="-900.454">Responsive</tspan><tspan x="723.076" y="-892.916">Design</tspan></text><text y="790.834" x="892.553" style="line-height:125%;-inkscape-font-specification:'Lato Bold'" transform="rotate(.195)" font-weight="700" font-size="2.75" font-family="Lato" letter-spacing="0" word-spacing="0" fill="#e8b92c"/><g fill="#e8b92c"><rect ry=".309" rx=".5" y="787.473" x="890.611" height="1.467" width="12.813"/><rect width="10.063" height="1.467" x="891.986" y="789.944" rx=".393" ry=".309"/></g><rect width="12.813" height="1.467" x="825.496" y="884.633" rx=".5" ry=".309" transform="rotate(-6.302)" fill="#e8b92c"/><rect ry=".309" rx=".393" y="887.104" x="826.871" height="1.467" width="10.063" transform="rotate(-6.302)" fill="#e8b92c"/></g></svg>