<svg xmlns="http://www.w3.org/2000/svg" xmlns:xlink="http://www.w3.org/1999/xlink" width="761.434" height="346.31" viewBox="0 0 761.4339 346.3101"><defs><linearGradient id="a"><stop offset="0" stop-color="#fff"/><stop offset="1" stop-color="#fff" stop-opacity="0"/></linearGradient><linearGradient xlink:href="#a" id="b" x1="80.249" y1="602.274" x2="425.79" y2="716.617" gradientUnits="userSpaceOnUse"/><linearGradient xlink:href="#a" id="c" gradientUnits="userSpaceOnUse" x1="80.249" y1="602.274" x2="425.79" y2="716.617"/><linearGradient xlink:href="#a" id="d" gradientUnits="userSpaceOnUse" x1="80.249" y1="602.274" x2="425.79" y2="716.617"/><linearGradient xlink:href="#a" id="e" gradientUnits="userSpaceOnUse" x1="80.249" y1="602.274" x2="425.79" y2="716.617"/><linearGradient xlink:href="#a" id="f" gradientUnits="userSpaceOnUse" x1="80.249" y1="602.274" x2="425.79" y2="716.617"/><linearGradient xlink:href="#a" id="g" gradientUnits="userSpaceOnUse" x1="80.249" y1="602.274" x2="425.79" y2="716.617"/><linearGradient xlink:href="#a" id="h" gradientUnits="userSpaceOnUse" x1="80.249" y1="602.274" x2="425.79" y2="716.617"/><linearGradient xlink:href="#a" id="i" gradientUnits="userSpaceOnUse" x1="80.249" y1="602.274" x2="425.79" y2="716.617"/><linearGradient xlink:href="#a" id="j" gradientUnits="userSpaceOnUse" x1="80.249" y1="602.274" x2="425.79" y2="716.617"/><linearGradient xlink:href="#a" id="k" gradientUnits="userSpaceOnUse" x1="80.249" y1="602.274" x2="425.79" y2="716.617"/></defs><g transform="translate(-336.58 -454.038)"><path fill="#333" d="M336.58 454.038h761.433v346.31H336.58z"/><g transform="translate(386.09 28.73)" fill="url(#b)" stroke="#e8b92c" stroke-width="2" stroke-linecap="round" stroke-linejoin="round"><path d="M559.912 675.248s6.025-3.193 9.356-27.85" fill="url(#c)"/><path d="M569.574 639.375l9.884 5.22 49.756 26.21" fill="url(#d)"/><path d="M628.992 671.694l-29.734 64.037" fill="url(#e)"/><path d="M571.018 636.154l64.415 32.652" fill="url(#f)"/><path d="M636.1 669.028l-33.16 68.48" fill="url(#g)"/><path d="M603.163 737.108l-2.162 4.05c.242.982.908 1.952.48 3.454-.305.814-.96 1.364-1.586 1.937l1.11 4.22 20.435 8.884.22 5.775c-25.32 6.663-47.977.443-47.977.443l.667-5.553 19.546-8.44 1.555-5.11s-4.44-5.552 2.222-6.885l2.15-5.265" fill="url(#h)"/><path d="M569.324 647.205c.085-1.562.328-4.895-.75-6.164l3-6.718" fill="url(#i)"/><path d="M571.684 634.377l2.443-3.11-1.777-3.553.667-2.222s-2.22-2.443-4.22-.444h-4.887l-5.553 9.33c-1.29-.012-2.957.287-5.248 1.124 0 0-17.854 9.537-23.63 19.088" fill="url(#j)"/><path d="M529.285 654.592c-.067 0-.518 3.135.94 5.58 0 0 10.695 17.325 29.386 15.126-7.374-11.952-30.325-20.706-30.325-20.706z" fill="url(#k)"/></g><rect ry="2.171" rx="2.171" y="-1031.299" x="790.423" height="93.065" width="16.877" transform="rotate(90)" fill="#333" stroke="#e8b92c" stroke-width="1.5" stroke-linecap="round" stroke-linejoin="round"/><rect width="23.793" height="96.205" x="883.963" y="711.521" rx="3.06" ry="2.244" fill="#333" stroke="#e8b92c" stroke-linecap="round" stroke-linejoin="round"/><path d="M981.692 775.504s1.446 1.837 4.43-.362" fill="#ccc" stroke="#e8b92c" stroke-width="2" stroke-linecap="round" stroke-linejoin="round"/><g transform="matrix(1.03885 -.03628 .03628 1.0376 -71.635 -2.708)" stroke="#e8b92c" stroke-width=".927" fill="none" stroke-linecap="round" stroke-linejoin="round"><path d="M835.314 799.763c-.285-.33-.693-.648-.83-1.168-.292-1.09.114-2.633.114-2.633l15.17-43.486c1.308-2.766 3.528-3.24 3.528-3.24l11.928-1.42c5.057-.55 3.714 3.186 3.714 3.186l-15.32 46.286s-.59 2.142-3.804 3.482l-12.574-.375s-1.737-.305-2.568-1.376"/><ellipse cx="1034.087" cy="818.024" rx="1.667" ry="1.831" transform="skewX(-13.472) scale(1 .97248)" stroke-width=".94"/><path d="M864.83 755.66l-14.586 1.13-12.12 34.248 14.624.08z"/><ellipse cx="1066.249" cy="781.892" rx=".536" ry=".556" transform="skewX(-15.66) scale(1 .9629)" stroke-width=".945"/><rect width="3.305" height=".833" x="1031.907" y="842.441" rx=".342" ry=".353" transform="matrix(.99755 -.06998 -.20495 .97877 0 0)" stroke-width=".945"/><path d="M834.846 799.206s1.52 2.314 3.396 2.206l14.143.697s2.602-.242 3.562-2.787l15.24-46.392s2.034-4.227-4.69-5.165"/><path d="M854.086 801.575s0 4.33-4.26 4.937l-18.816-1.19s-.375.015-.455.805c-.203 1.683-.272 2.508.69 2.46l18.316 1.163 5.664-.037 9.59-.747M863.84 775.355s.342.455.153 1.326c-.19.872-2.652 8.145-2.652 8.145s.04 2.387.72 2.955c0 0 6.03 9.686 6.044 9.985 0 0 4.374 9.56-3.24 11.152"/><path d="M850.015 806.53c.152.04 2.765 1.364 5.114 1.023 0 0 11.136-.416 11.25-.795 0 0 5.87-1.932-5.57-17.842 0 0-1.005-.28-1.3.04"/></g><path fill="#e8b92c" d="M883.866 719.84h23.865v1.724h-23.864zM923.832 686.886a10.707 3.298 32.083 0 0-.296 4.152 10.707 3.298 32.083 0 0 12.77 8.132 10.707 3.298 32.083 0 0 4.2-1.25l-16.46-11.028a10.707 3.298 32.083 0 0-.214-.006z"/><rect transform="rotate(-7.03)" width="16.877" height="93.065" x="812.057" y="822.88" rx="2.171" ry="2.171" fill="#333" stroke="#e8b92c" stroke-linecap="round" stroke-linejoin="round"/><path fill="#e8b92c" d="M907.884 723.99l16.178-1.422.15 1.72-16.177 1.42z"/><g transform="matrix(.89495 0 0 .89495 704.973 83.328)"><path d="M388.395 756.56s-1.996 25.08 6.826 46.003M419.658 803.725s-11.83 4.08-24.474-1.097" fill="none" stroke="#e8b92c" stroke-width="1.199" stroke-linecap="round" stroke-linejoin="round"/><g fill="none" stroke="#e8b92c" stroke-width=".71" stroke-linecap="round" stroke-linejoin="round"><path d="M831.216 770.7s4.42.614 4.393 2.697c.278.768.398 8.555-6.355 10.06" transform="matrix(1.2953 0 0 1.53186 -649.243 -411.446)"/><path d="M827.415 788.644s1.244-1.226 1.796-2.06c0 0 5.986-1.773 8.39-7.59 0 0 3.57-10.246-6.283-10.9" transform="matrix(1.2953 0 0 1.53186 -649.243 -411.446)"/></g><path d="M405.977 781.018a3.005 3.005 0 0 0-1.417.245c-.173-.306-.343-.58-.385-.776-.048-.228-.094-.37-.08-.637.01-.268.137-.643.13-.673-.005-.03-.047-.17-.368-.193-.32-.025-.592.023-.617.106a3.22 3.22 0 0 0-.094.47c-.032.29-.53 1.303-.82 1.83-.125-.22-.234-.415-.267-.566-.05-.228-.095-.37-.082-.637.012-.268.138-.643.133-.673-.005-.03-.048-.17-.37-.193-.32-.024-.59.024-.615.107-.025.084-.044.28-.095.47-.05.19-.684 1.892-.85 2.332-.087.224-.162.404-.215.526l-.01.023c-.046.104-.073.16-.073.16v.005c-.037.076-.077.147-.1.145-.018 0-.067-.214-.036-.5.067-.6.265-1.53.26-1.56-.002-.02.037-.18-.203-.28-.234-.1-.304.036-.324.034-.02 0-.032.048-.032.048s.166-1.048-.57-1.095c-.46-.03-1.054.438-1.33.876-.19.096-.593.3-1.023.522-.164.086-.334.17-.492.252l-.038-.04c-.97-1.02-2.674-1.805-2.71-3.09-.013-.47.045-1.694 2.9-3 2.352-1.062 4.33-.6 4.73.173.572 1.1-.794 2.99-3.303 3.114-.958.047-1.495-.362-1.635-.512-.146-.155-.167-.166-.214-.14-.078.04-.015.175.02.253.093.205.433.578.974.785.48.183 1.62.342 2.946-.105 1.485-.5 2.548-2.09 2.08-3.51-.468-1.438-2.836-2.056-4.975-1.407-1.272.385-2.632 1.034-3.575 1.933-1.12 1.07-1.23 2.053-1.117 2.475.404 1.5 2.507 2.595 3.376 3.36l-.106.056c-.388.178-1.864.892-2.178 1.73-.356.947.208 1.68.55 1.794a2.176 2.176 0 0 0 2.592-.923c.503-.826.34-1.954.033-2.485l-.013-.02.302-.166c.197-.11.39-.213.558-.296-.077.267-.123.59-.12 1.057.003.55.286 1.283.604 1.584a.59.59 0 0 0 .394.15c.344.023.475-.255.618-.585.176-.405.325-.878.325-.878s-.127 1.296.514 1.338c.232.015.443-.276.535-.425v.004l.014-.03.033-.06v-.005c.08-.158.258-.518.52-1.118.335-.774.64-1.748.64-1.748s.055.245.208.658c.09.243.256.514.394.774-.084.127-.136.196-.136.196l.004.005c-.068.095-.14.2-.222.3-.286.36-.628.774-.67.897-.05.146-.026.256.098.35.09.072.242.09.396.09.284 0 .48-.06.574-.096.15-.046.323-.12.482-.235.292-.213.454-.533.4-.972-.027-.242-.126-.488-.24-.72l.073-.12c.432-.693.748-1.465.748-1.465s.054.246.207.66c.075.21.213.44.336.665-.43.35-.68.77-.758 1.053-.14.524.023.774.298.848.125.034.295-.013.418-.06.16-.044.344-.122.516-.246.292-.212.566-.516.512-.955-.025-.2-.094-.4-.182-.596.38-.14.88-.197 1.53-.08 1.4.255 1.746 1.146 1.724 1.51-.022.364-.297.545-.388.6-.09.056-.12.074-.11.12.018.065.065.065.145.058.112-.013.704-.25.674-.924-.028-.862-.92-1.858-2.362-1.942zm-10.393 2.95c-.418.476-1.043.625-1.333.446-.31-.193-.255-.932.265-1.43.317-.305.735-.58 1.014-.745.062-.038.156-.09.27-.156l.03-.015c.022-.015.044-.028.066-.04.27.777.127 1.437-.312 1.938zm3.16-2.083c-.128.383-.38 1.37-.59 1.3-.177-.057-.348-.828-.162-1.568.094-.37.32-.807.46-.973.228-.266.497-.342.574-.223.097.156-.204 1.224-.282 1.465zm2.873 1.513c-.064.03-.127.05-.157.03-.022-.013.024-.056.024-.056s.316-.354.438-.516c.07-.095.154-.206.242-.332 0 .012.002.026.004.038.038.45-.37.725-.55.836zm2.09-.354c-.052-.038-.053-.155.083-.512.052-.14.184-.37.424-.587a.907.907 0 0 1 .07.274c.04.566-.342.752-.576.824z" fill="#e8b92c"/><g fill="#e8b92c"><path d="M412.89 797.227c-.167-.01-.323.06-.465.21a1.07 1.07 0 0 0-.276.564c-.043.23-.02.426.064.59.085.162.212.248.38.26.153.008.302-.062.443-.21.143-.15.235-.338.277-.567.04-.227.02-.423-.066-.586-.084-.164-.204-.25-.36-.26zM415.73 797.403c-.165-.01-.322.058-.465.21a1.072 1.072 0 0 0-.275.564c-.042.228-.02.424.065.587.085.163.213.25.378.26.155.01.303-.06.446-.21.142-.148.234-.337.275-.565.042-.23.02-.425-.065-.587-.086-.165-.204-.25-.36-.26z"/><path d="M418.135 795.413s.097-.258.136-.717a4.1 4.1 0 0 0-.062-1.278s-.083.01-.24.04c-.16.03-.424.09-.795.223a8.83 8.83 0 0 0-1.17.55c-.24-.088-.607-.148-1.108-.18-.478-.028-.86-.015-1.146.04-.708-.614-1.327-.97-1.867-1.062-.226.374-.4.79-.522 1.245-.126.453-.123.72-.123.72-.528.454-.837 1.138-.942 1.71-.08.444-.142.844-.107 1.206.036.358.112.656.225.887.116.23.27.438.467.62.195.184.382.32.557.41.176.09.38.163.62.22.235.058.415.093.54.107a24.26 24.26 0 0 0 2.338.144c.13 0 .318-.01.57-.04.253-.026.482-.073.685-.14.204-.066.436-.174.694-.33a2.96 2.96 0 0 0 .68-.55c.194-.212.375-.494.54-.84.166-.35.252-.752.333-1.195.1-.554.047-1.268-.302-1.79zm-1.97 4.204c-.55.21-1.314.26-2.303.198l-.038-.003c-.99-.06-1.716-.203-2.17-.475-.457-.27-.617-.78-.48-1.524.08-.446.302-.796.66-1.054.155-.112.336-.184.548-.22.21-.035.398-.027.57-.01.17.017.404.064.705.106.3.043.522.088.748.102.213.013.5-.005.96-.014.46-.008.8-.005 1.012.044.216.05.397.14.534.306.27.308.366.68.287 1.112-.136.744-.484 1.223-1.032 1.43z"/></g><path d="M427.027 756.56s1.59 26.142-7.232 47.065" fill="none" stroke="#e8b92c" stroke-width="1.199" stroke-linecap="round" stroke-linejoin="round"/><path d="M416.772 735.844l1.3.376 1.3.375.278-3.396.278-3.397-1.578 3.02zm0 0l2.6.752-5.993 20.724a17.18 33.495 90 0 1-2.417-1.383l5.81-20.093zM429.514 739.534l1.218.59 1.218.59.846-3.302.846-3.3-2.064 2.71zm0 0l2.435 1.178-7.906 16.332a17.18 33.495-76.05 0 1-2.423-1.208l7.893-16.3z" fill="#e8b92c"/><path d="M399.408 730.033c1.72 3.93.703 8.08-2.766 8.275-3.042.444-4.142-4.618-4.173-6.754.387-4.326 5.7-4.165 6.938-1.52zM379.38 733.953c-.743 1.966.25 5.913 3.826 7.513 2.527.352 4.575.404 4.103-4-.218-5.947-6.636-7.63-7.93-3.513zM400.887 765.457l-4.718-14.288-.733-2.712M390.807 749.73l7.564 17.822M396.043 750.973l-4.29-2.166" fill="none" stroke="#e8b92c" stroke-linecap="round" stroke-linejoin="round"/><path d="M391.68 747.706c.37 1.92-1.2 2.123-1.2 2.123s-1.008-4.416-3.825-5.96c-1.487-.62-2.873-.035-4.583-.31-3.902-1.675-5.314-4.847-5.617-8.08.17-6.666 7.46-8.713 10.495-5.093 2.447 3.888 2.03 8.55 3.642 13.555.35.927 1.06 3.152 1.088 3.764z" fill="none" stroke="#e8b92c" stroke-linecap="round" stroke-linejoin="round"/><circle transform="rotate(-25.78)" r=".818" cy="849.513" cx="27.648" fill="none" stroke="#e8b92c" stroke-linecap="round" stroke-linejoin="round"/><path d="M394.08 747.122c.584 1.867 2.063 1.3 2.063 1.3s-1.206-4.365.54-7.06c1.018-1.25 2.515-1.394 3.89-2.446 2.64-3.326 2.38-6.788 1.113-9.78-3.31-5.786-10.7-4.13-11.655.495-.308 4.585 2.268 8.493 3.224 13.662.13.983.562 3.277.826 3.83z" fill="none" stroke="#e8b92c" stroke-linecap="round" stroke-linejoin="round"/><path fill="#333" d="M389.69 756.213h34.398v17.625h-34.4z"/><g fill="#e8b92c"><path d="M413.07 766.068l1.44-.808c.197.457.38.843.943.843.538 0 .905-.21 1.012-1.03l.724-5.572h1.638l-.727 5.596c-.22 1.697-1.315 2.47-2.767 2.47-1.31 0-1.984-.68-2.264-1.498M418.887 765.892l1.435-.772c.277.573.68.995 1.486.995.68 0 1.156-.34 1.217-.808.073-.562-.346-.76-1.052-1.09l-.387-.174c-1.117-.504-1.82-1.136-1.646-2.47.16-1.23 1.218-2.166 2.682-2.166 1.042 0 1.744.363 2.16 1.31l-1.384.82c-.215-.503-.494-.702-.962-.702-.48 0-.824.305-.876.703-.064.49.215.69.878.995l.387.175c1.315.597 2.02 1.206 1.842 2.576-.192 1.475-1.455 2.282-3.012 2.282-1.522 0-2.41-.725-2.768-1.674"/></g><path d="M407.043 755.262c-10.29 0-18.63.52-18.634 1.163-.005.643 8.657-.903 18.95-.903 10.295 0 19.707 1.453 19.704.81-.004-.642-9.732-1.07-20.02-1.07z" fill="none" stroke="#e8b92c" stroke-width="1.199" stroke-linecap="round" stroke-linejoin="round"/><path d="M420.423 734.574l1.344.155 1.345.155-.29-3.396-.287-3.396-1.056 3.24zm0 0l2.69.31-2.482 21.43a17.18 33.495 80.474 0 1-2.61-.962l2.403-20.778z" fill="#e8b92c"/><path d="M393.99 746.923l.152 3.044" fill="none" stroke="#e8b92c" stroke-linecap="round" stroke-linejoin="round"/></g><text y="-803.64" x="853.772" style="line-height:125%;-inkscape-font-specification:'Lato Heavy'" transform="rotate(81.743)" font-weight="900" font-size="5.48" font-family="Lato" letter-spacing="1" word-spacing="0" fill="#e8b92c"><tspan y="-803.64" x="853.772">Web</tspan><tspan y="-796.79" x="853.772">Performance</tspan></text><text transform="rotate(90.195)" style="line-height:125%;-inkscape-font-specification:'Lato Heavy'" x="723.076" y="-900.454" font-weight="900" font-size="6.03" font-family="Lato" letter-spacing="1.1" word-spacing="0" fill="#e8b92c"><tspan x="723.076" y="-900.454">Responsive</tspan><tspan x="723.076" y="-892.916">Design</tspan></text><text y="790.834" x="892.553" style="line-height:125%;-inkscape-font-specification:'Lato Bold'" transform="rotate(.195)" font-weight="700" font-size="2.75" font-family="Lato" letter-spacing="0" word-spacing="0" fill="#e8b92c"/><g fill="#e8b92c"><rect ry=".309" rx=".5" y="787.473" x="890.611" height="1.467" width="12.813"/><rect width="10.063" height="1.467" x="891.986" y="789.944" rx=".393" ry=".309"/></g><rect width="12.813" height="1.467" x="825.496" y="884.633" rx=".5" ry=".309" transform="rotate(-6.302)" fill="#e8b92c"/><rect ry=".309" rx=".393" y="887.104" x="826.871" height="1.467" width="10.063" transform="rotate(-6.302)" fill="#e8b92c"/></g></svg>