<svg xmlns="http://www.w3.org/2000/svg" width="761.434" height="346.31" viewBox="0 0 761.4339 346.3101"><g transform="translate(-336.58 -454.038)"><path d="M946.001 703.978s6.025-3.193 9.357-27.849M955.664 668.105l9.884 5.22 49.755 26.21M957.107 664.885l64.416 32.651M1022.19 697.759l-33.048 68.28-2.05 3.851c.24.98.906 1.951.478 3.453-.304.814-.96 1.363-1.586 1.936l1.11 4.22 20.435 8.885.078 2.04h-47.332l.164-1.374 19.547-8.44 1.554-5.109s-4.443-5.554 2.221-6.886l1.869-4.709 29.451-63.482" fill="none" stroke="#e8b92c" stroke-width="2" stroke-linecap="round" stroke-linejoin="round"/><path d="M955.414 675.935c.085-1.562.328-4.895-.75-6.164l2.999-6.719" fill="none" stroke="#e8b92c" stroke-width="2" stroke-linecap="round" stroke-linejoin="round"/><path d="M957.774 663.108l2.443-3.11-1.777-3.554.666-2.221s-2.22-2.444-4.22-.445H950l-5.554 9.33c-1.29-.011-2.957.288-5.247 1.124 0 0-17.853 9.537-23.628 19.089M915.374 683.323c-.066-.001-.517 3.134.942 5.579 0 0 10.694 17.325 29.384 15.126-7.374-11.951-30.326-20.705-30.326-20.705z" fill="none" stroke="#e8b92c" stroke-width="2" stroke-linecap="round" stroke-linejoin="round"/><rect ry="2.171" rx="2.171" y="-1031.299" x="790.822" height="93.065" width="16.877" transform="rotate(90)" fill="none" stroke="#e8b92c" stroke-width="1.5" stroke-linecap="round" stroke-linejoin="round"/><rect width="23.793" height="96.205" x="883.963" y="711.521" rx="3.06" ry="2.244" fill="none" stroke="#e8b92c" stroke-linecap="round" stroke-linejoin="round"/><path d="M981.692 775.504s1.446 1.837 4.43-.362" fill="#ccc" stroke="#e8b92c" stroke-width="2" stroke-linecap="round" stroke-linejoin="round"/><g transform="matrix(1.03885 -.03628 .03628 1.03759 -71.635 -2.708)" stroke="#e8b92c" stroke-width=".927" fill="none" stroke-linecap="round" stroke-linejoin="round"><path d="M835.314 799.763c-.285-.329-.693-.648-.831-1.168-.29-1.09.115-2.633.115-2.633l15.171-43.486c1.307-2.766 3.527-3.241 3.527-3.241l11.928-1.419c5.057-.549 3.714 3.186 3.714 3.186l-15.32 46.286s-.59 2.142-3.804 3.482l-12.574-.375s-1.737-.305-2.568-1.376"/><ellipse cx="1034.087" cy="818.024" rx="1.667" ry="1.831" transform="skewX(-13.472) scale(1 .97248)" stroke-width=".94"/><path d="M864.83 755.661l-14.586 1.13-12.12 34.247 14.624.08z"/><ellipse cx="1066.249" cy="781.892" rx=".536" ry=".556" transform="matrix(1 0 -.2699 .96289 0 0)" stroke-width=".945"/><rect width="3.305" height=".833" x="1031.907" y="842.441" rx=".342" ry=".353" transform="matrix(.99755 -.06998 -.20495 .97877 0 0)" stroke-width=".945"/><path d="M834.846 799.206s1.521 2.314 3.396 2.206l14.143.697s2.602-.241 3.562-2.786l15.241-46.392s2.033-4.228-4.69-5.166"/><path d="M854.086 801.575s.001 4.33-4.26 4.937l-18.816-1.189s-.375.014-.455.804c-.203 1.683-.272 2.508.69 2.459l18.316 1.164 5.663-.037 9.59-.747M863.841 775.355s.341.455.152 1.326c-.19.871-2.652 8.144-2.652 8.144s.038 2.387.72 2.955c0 0 6.03 9.686 6.043 9.985 0 0 4.374 9.561-3.24 11.152"/><path d="M850.015 806.53c.152.039 2.765 1.364 5.114 1.023 0 0 11.137-.416 11.25-.795 0 0 5.872-1.932-5.568-17.842 0 0-1.006-.28-1.301.041"/></g><path fill="#e8b92c" d="M883.866 719.839h23.865v1.725h-23.865zM923.832 686.886a10.707 3.298 32.083 0 0-.296 4.152 10.707 3.298 32.083 0 0 12.77 8.132 10.707 3.298 32.083 0 0 4.2-1.25l-16.461-11.028a10.707 3.298 32.083 0 0-.213-.006z"/><g transform="translate(.875 -.25)" fill="none"><rect transform="rotate(-7.031)" width="16.877" height="93.065" x="812.057" y="822.88" rx="2.171" ry="2.171" stroke="#e8b92c" stroke-linecap="round" stroke-linejoin="round"/><path d="M907.884 723.99l16.178-1.422.15 1.719-16.177 1.422z"/></g><path d="M1052.566 760.41s-1.786 22.445 6.11 41.17M1080.545 802.621s-10.588 3.652-21.903-.982" fill="none" stroke="#e8b92c" stroke-width="1.073" stroke-linecap="round" stroke-linejoin="round"/><g fill="none" stroke="#e8b92c" stroke-width=".71" stroke-linecap="round" stroke-linejoin="round"><path d="M831.216 770.7s4.42.614 4.393 2.697c.28.768.399 8.555-6.354 10.06" transform="matrix(1.15921 0 0 1.37093 123.933 -284.895)"/><path d="M827.415 788.644s1.244-1.226 1.796-2.061c0 0 5.985-1.772 8.389-7.588 0 0 3.57-10.247-6.283-10.9" transform="matrix(1.15921 0 0 1.37093 123.933 -284.895)"/></g><path d="M1068.301 782.3a2.69 2.69 0 0 0-1.268.219c-.154-.275-.307-.52-.345-.695-.043-.204-.084-.33-.073-.57.011-.24.124-.576.12-.602-.01-.027-.044-.152-.331-.173-.287-.022-.53.02-.552.095a2.958 2.958 0 0 0-.085.421c-.028.26-.475 1.165-.734 1.638-.112-.198-.21-.372-.239-.507-.043-.205-.084-.33-.073-.57.011-.24.124-.576.12-.602-.01-.027-.044-.152-.331-.173-.287-.022-.53.02-.552.095-.022.074-.04.251-.085.42-.046.17-.613 1.694-.762 2.087-.077.202-.144.362-.192.472 0 0 0 .006-.01.02l-.066.145v.004c-.032.069-.07.132-.09.13-.014 0-.06-.192-.03-.447.059-.537.237-1.368.232-1.398 0-.015.033-.16-.181-.25-.21-.089-.272.033-.29.032-.019-.001-.028.042-.028.042s.149-.937-.51-.98c-.412-.027-.943.392-1.19.784l-.916.467c-.147.077-.298.154-.44.226l-.034-.037c-.868-.911-2.393-1.614-2.426-2.765-.01-.42.041-1.515 2.597-2.685 2.104-.95 3.875-.535 4.233.156.511.985-.71 2.675-2.957 2.787-.857.041-1.338-.325-1.463-.458-.13-.14-.15-.149-.192-.125-.07.034-.013.156.02.226.081.183.386.517.87.702.43.164 1.45.306 2.637-.094 1.33-.448 2.28-1.87 1.862-3.14-.42-1.288-2.539-1.841-4.453-1.26-1.138.345-2.355.925-3.2 1.73-1.001.955-1.1 1.836-.999 2.214.362 1.342 2.244 2.322 3.021 3.008l-.094.049c-.347.158-1.668.798-1.949 1.546-.319.848.186 1.504.493 1.607.951.32 1.87-.086 2.319-.826.45-.74.304-1.75.03-2.225 0-.006-.01-.011-.012-.017l.27-.15c.176-.098.35-.19.5-.263-.069.239-.11.527-.107.945 0 .493.255 1.147.54 1.417.126.118.264.13.353.135.307.02.424-.229.553-.524a9.47 9.47 0 0 0 .29-.785s-.114 1.16.459 1.197c.208.013.397-.247.48-.38v.004s0-.006.013-.025l.029-.053v-.005c.07-.142.23-.464.464-1.001.3-.693.573-1.565.573-1.565s.05.22.186.59c.08.217.23.46.353.693-.074.113-.12.175-.12.175v.004c-.061.086-.126.178-.199.268-.256.323-.562.693-.6.803-.044.131-.023.23.088.315.08.063.217.08.354.08.254-.002.429-.053.514-.087.134-.041.29-.107.431-.21.262-.19.407-.476.359-.87a2.038 2.038 0 0 0-.216-.644c.023-.035.043-.07.067-.106.387-.62.67-1.312.67-1.312s.048.22.185.59c.067.188.19.395.3.596-.386.312-.609.69-.679.942-.125.468.021.692.267.758.112.03.264-.012.374-.054a1.45 1.45 0 0 0 .462-.22c.262-.19.506-.461.458-.854a1.868 1.868 0 0 0-.163-.534c.34-.125.787-.177 1.37-.071 1.253.227 1.562 1.024 1.543 1.35-.02.326-.266.488-.348.538-.08.05-.108.066-.098.106.015.058.057.058.13.053.1-.012.629-.224.602-.827-.024-.771-.823-1.663-2.112-1.738zm-9.3 2.64c-.375.425-.935.559-1.194.398-.279-.172-.23-.833.237-1.28.283-.272.657-.517.907-.666l.242-.139.027-.014.06-.035c.24.696.112 1.287-.28 1.735zm2.827-1.865c-.115.343-.34 1.226-.527 1.165-.16-.053-.312-.743-.146-1.404.084-.333.288-.722.413-.871.203-.238.444-.307.512-.2.087.139-.182 1.095-.252 1.31zm2.57 1.354c-.056.028-.112.045-.14.028-.018-.012.023-.051.023-.051s.282-.317.392-.462c.063-.085.138-.184.217-.297v.034c.033.403-.33.649-.494.748zm1.872-.316c-.047-.035-.048-.14.074-.459.047-.125.165-.332.38-.525a.83.83 0 0 1 .062.245c.038.508-.305.674-.515.739z" fill="#e8b92c"/><g fill="#e8b92c"><path d="M1074.487 796.806c-.148-.01-.288.052-.415.187a.957.957 0 0 0-.247.506.802.802 0 0 0 .058.525c.076.146.19.224.339.233.138.008.271-.054.398-.187a.964.964 0 0 0 .247-.507.8.8 0 0 0-.058-.525c-.076-.146-.183-.223-.322-.232zM1077.03 796.963c-.148-.01-.288.052-.416.187a.96.96 0 0 0-.246.505.809.809 0 0 0 .057.526c.077.146.191.223.34.233.138.008.27-.054.398-.187a.962.962 0 0 0 .248-.507.798.798 0 0 0-.06-.525c-.076-.147-.181-.223-.322-.232z"/><path d="M1079.182 795.182s.087-.23.122-.641a3.67 3.67 0 0 0-.056-1.144s-.075.008-.217.035a4.576 4.576 0 0 0-.71.2 7.902 7.902 0 0 0-1.048.49c-.213-.077-.542-.131-.99-.159-.428-.026-.77-.014-1.026.036-.633-.55-1.187-.868-1.67-.951a4.315 4.315 0 0 0-.467 1.114c-.114.406-.111.644-.111.644-.473.406-.75 1.019-.843 1.53-.072.398-.127.756-.096 1.08.032.322.1.588.201.794a1.9 1.9 0 0 0 .418.555c.175.166.342.286.499.366.157.082.34.147.555.198.21.052.37.083.484.096a21.362 21.362 0 0 0 2.092.129c.115.001.284-.01.509-.035.227-.024.432-.066.614-.125.182-.06.39-.157.62-.297.232-.135.433-.3.61-.492a3.1 3.1 0 0 0 .484-.752c.147-.313.224-.672.296-1.07.09-.495.043-1.134-.27-1.6zm-1.763 3.763c-.493.186-1.176.231-2.06.177l-.035-.003c-.886-.055-1.536-.182-1.943-.425-.408-.242-.551-.698-.43-1.364.073-.399.272-.712.592-.943.14-.1.3-.164.49-.197.19-.03.356-.024.512-.01.151.017.36.06.63.097.268.038.467.079.67.091.19.012.448-.005.858-.012.413-.008.717-.005.905.039a.831.831 0 0 1 .479.274c.241.276.326.608.255.994-.121.667-.432 1.095-.923 1.282z"/></g><path d="M1087.14 760.41s1.423 23.396-6.473 42.122" fill="none" stroke="#e8b92c" stroke-width="1.073" stroke-linecap="round" stroke-linejoin="round"/><path d="M1077.963 741.87l1.163.337 1.164.336.248-3.039.248-3.04-1.412 2.704zm0 0l2.326.674-4.863 17.375c-.677-.432-1.832-.115-2.596-.507zM1089.365 745.173l1.09.528 1.09.527.758-2.954.757-2.954-1.847 2.427zm0 0l2.18 1.054-7.074 14.617a15.375 29.976-76.05 0 1-2.17-1.082l7.064-14.588z" fill="#e8b92c"/><path d="M1062.422 736.67c1.54 3.516.63 7.232-2.475 7.406-2.722.397-3.707-4.133-3.735-6.044.347-3.872 5.102-3.728 6.21-1.362zM1044.498 740.178c-.664 1.76.223 5.292 3.424 6.725 2.262.314 4.095.36 3.673-3.581-.195-5.322-5.939-6.829-7.097-3.144zM1060.777 759.717l-1.253-4.13-.655-2.427M1054.725 754.297l2.02 4.95M1059.41 755.411l-3.838-1.939" fill="none" stroke="#e8b92c" stroke-width=".895" stroke-linecap="round" stroke-linejoin="round"/><path d="M1055.506 752.487c.333 1.719-1.073 1.9-1.073 1.9s-.902-3.951-3.424-5.334c-1.33-.553-2.571-.03-4.101-.276-3.492-1.5-4.756-4.339-5.028-7.233.152-5.964 6.677-7.797 9.393-4.557 2.19 3.48 1.818 7.653 3.26 12.131.313.83.947 2.82.973 3.369z" fill="none" stroke="#e8b92c" stroke-width=".895" stroke-linecap="round" stroke-linejoin="round"/><circle cx="623.304" cy="1141.918" r=".732" transform="rotate(-25.781)" fill="none" stroke="#e8b92c" stroke-width=".895" stroke-linecap="round" stroke-linejoin="round"/><path d="M1057.655 751.964c.522 1.671 1.846 1.164 1.846 1.164s-1.08-3.907.484-6.32c.91-1.118 2.25-1.246 3.48-2.188 2.363-2.976 2.13-6.075.996-8.751-2.961-5.18-9.576-3.699-10.43.441-.277 4.103 2.028 7.6 2.884 12.227.117.879.503 2.932.74 3.427z" fill="none" stroke="#e8b92c" stroke-width=".895" stroke-linecap="round" stroke-linejoin="round"/><g fill="#e8b92c"><path d="M1074.649 768.92l1.288-.723c.177.408.342.754.845.754.482 0 .81-.188.905-.922l.649-4.987h1.466l-.65 5.008c-.198 1.52-1.179 2.21-2.478 2.21-1.173 0-1.775-.607-2.025-1.34M1079.855 768.763l1.284-.692c.248.514.608.89 1.33.89.608 0 1.035-.303 1.09-.722.065-.503-.31-.681-.942-.974l-.346-.158c-1-.45-1.628-1.016-1.473-2.21.143-1.1 1.09-1.938 2.4-1.938.932 0 1.56.324 1.932 1.173l-1.238.733c-.193-.45-.442-.628-.86-.628-.43 0-.738.272-.784.628-.058.44.192.619.785.89l.346.158c1.177.534 1.808 1.08 1.65 2.305-.173 1.32-1.304 2.043-2.697 2.043-1.362 0-2.158-.65-2.477-1.498"/></g><path d="M1069.255 759.249c-9.208 0-16.673.466-16.676 1.04 0 .576 7.749-.807 16.961-.807s17.635 1.3 17.633.725c0-.575-8.71-.958-17.918-.958z" fill="none" stroke="#e8b92c" stroke-width="1.073" stroke-linecap="round" stroke-linejoin="round"/><path d="M1081.23 740.734l1.203.14 1.203.138-.258-3.038-.258-3.039-.945 2.9zm0 0l2.406.279-2.22 19.178a15.375 29.976 80.474 0 1-2.337-.862l2.15-18.595z" fill="#e8b92c"/><path d="M1057.574 751.786l.136 2.724" fill="none" stroke="#e8b92c" stroke-width=".895" stroke-linecap="round" stroke-linejoin="round"/><text y="-803.64" x="853.772" style="line-height:125%;-inkscape-font-specification:'Lato Heavy'" transform="rotate(81.743)" font-weight="900" font-size="5.48" font-family="Lato" letter-spacing="1" word-spacing="0" fill="#e8b92c"><tspan y="-803.64" x="853.772">Web</tspan><tspan y="-796.79" x="853.772">Performance</tspan></text><text transform="rotate(90.195)" style="line-height:125%;-inkscape-font-specification:'Lato Heavy'" x="723.076" y="-900.454" font-weight="900" font-size="6.03" font-family="Lato" letter-spacing="1.1" word-spacing="0" fill="#e8b92c"><tspan x="723.076" y="-900.454">Responsive</tspan><tspan x="723.076" y="-892.916">Design</tspan></text><text y="790.834" x="892.553" style="line-height:125%;-inkscape-font-specification:'Lato Bold'" transform="rotate(.195)" font-weight="700" font-size="2.75" font-family="Lato" letter-spacing="0" word-spacing="0" fill="#e8b92c"/><g fill="#e8b92c"><rect ry=".309" rx=".5" y="787.473" x="890.611" height="1.467" width="12.813"/><rect width="10.063" height="1.467" x="891.986" y="789.944" rx=".393" ry=".309"/></g><rect width="12.813" height="1.467" x="825.496" y="884.633" rx=".5" ry=".309" transform="rotate(-6.302)" fill="#e8b92c"/><rect ry=".309" rx=".393" y="887.104" x="826.871" height="1.467" width="10.063" transform="rotate(-6.302)" fill="#e8b92c"/></g></svg>