<svg xmlns="http://www.w3.org/2000/svg" width="150" height="150" viewBox="0 0 150.00001 150.00001"><g transform="translate(-290.714 -397.362)" fill="#333"><path d="M389.592 487.465c-.44 0-.87-.079-1.284-.237-1.733-.66-2.647-2.542-2.172-4.283l-.018-.009.114-.299 8.803-22.863c.132-.334.07-1.143.009-1.592a.68.68 0 0 1 .009-.299l.009-.017c.009-.018.009-.035.017-.053.141-.37.572-.554 1.276-.554.844 0 2.013.264 3.21.721 1.002.387 1.916.87 2.558 1.354.756.572 1.055 1.082.888 1.522l-.026.052-.01.018a.635.635 0 0 1-.184.22c-.387.343-.958.923-1.055 1.187l-8.908 23.18-.018-.01a3.622 3.622 0 0 1-3.218 1.962zm-2.753-4.678l-.026.062a2.972 2.972 0 0 0 1.715 3.798c.343.132.694.194 1.055.194 1.222 0 2.304-.73 2.752-1.873l.035-.08 8.759-22.766c.184-.492 1.055-1.275 1.23-1.433l.019-.018c.017-.009.026-.017.026-.026l.009-.01c.009-.06-.07-.333-.686-.808-.59-.449-1.442-.897-2.4-1.266-1.109-.431-2.234-.686-2.99-.686-.502 0-.669.105-.695.158V458.087c.017.131.185 1.3-.044 1.907l-8.759 22.793z"/><path d="M398.104 468.304s-1.214 1.398-2.322 1.9c-1.108.5-1.925.369-2.92.95-.993.58-1.494 1.388-1.494 1.388l-4.045 10.526c-.44 1.188.21 2.577 1.416 3.043a2.366 2.366 0 0 0 3.033-1.328l6.332-16.479zm-4.072 6.076a.374.374 0 0 1 .502.194.374.374 0 0 1-.194.501.374.374 0 0 1-.501-.193.367.367 0 0 1 .193-.502zm-1.626-1.732c.131-.053.281 0 .334.132.053.132 0 .281-.132.334-.132.053-.282 0-.334-.132a.26.26 0 0 1 .132-.334zm-1.786 5.953a.374.374 0 0 1-.5-.193.374.374 0 0 1 .193-.501.374.374 0 0 1 .5.193c.098.193.01.413-.193.501zm.361-1.38a.725.725 0 0 1 .36-.95c.361-.158.783 0 .95.36.159.361 0 .783-.36.95a.72.72 0 0 1-.95-.36zm.915 3.649c.131-.053.28 0 .334.132.053.132 0 .281-.132.334-.132.053-.282 0-.334-.132a.258.258 0 0 1 .132-.334z"/><ellipse ry="2.445" rx=".642" cy="537.324" cx="-285.716" transform="rotate(-68.96)"/><path d="M345.351 471.223c.387.308 1.09.132 1.565-.386.493-.546.572-1.24.185-1.557-.387-.308-1.09-.132-1.565.413-.501.554-.59 1.223-.185 1.53zm-1.152 1.012c-.105 0-.281.184-.132.255.211.079.308.255.308.519-.185 1.064-1.504 2.286-2.031 2.7-.132.131.053.412.184.307.282-.229.88-.695 1.372-1.32-.8 1.795-2.365 4.099-2.963 4.908-2.34 3.245-5.892 6.226-8.337 6.226-1.952 0-3.605-1.32-3.965-3.272-.027-.21-.308-.255-.255.027.44 2.673 2.497 3.702 4.986 3.702 2.726 0 5.926-1.979 7.685-3.992 2.85-3.272 4.705-7.026 4.203-9.155-.193-.8-.747-.932-1.055-.905zm17.517 7.114c.747-.185 1.372-.598 1.372-1.249 0-.062-.132-.062-.132 0 0 .387-.44.703-.932.783-1.161.184-3.474-1.187-4.564-2.594 1.16.44 3.553-.203 4.678-1.003 1.038-.747 1.451-1.583 1.539-2.26.132-1.108-1.09-1.767-2.779-1.108-1.09.44-2.392 1.398-3.737 3.192 1.424-2.365 4.23-6.2 6.982-8.661 3.35-2.981 5.294-2.41 2.286.747-1.24 1.293-3.579 2.981-5.197 3.71-.492.212-.255.493.106.335 1.715-.747 3.992-2.313 5.373-3.605 4.071-3.913.677-6.868-3.843-2.726-3.06 2.831-5.065 5.786-6.797 9.62-.598.72-1.038 1.319-1.592 1.794a1.382 1.382 0 0 0-.158.167c-1.495 1.284-3.852 3.016-5.32 3.042-1.038.027-1.478-.747-1.293-1.767.281-1.583 1.926-3.447 3.324-4.098 1.82-.827 2.884.774.492 2.075-.905.466-2.005.721-2.444.721-.52 0-.466.211-.027.229.721.026 1.9-.281 2.673-.65 2.445-1.161 2.595-3.342-.052-3.421-2.885-.106-6.332 2.365-6.305 5.452.026 1.398 1.143 2.154 2.673 2.154 2.55-.026 4.828-1.97 6.683-3.667.264-.22.528-.466.783-.72-.651 1.661-.985 3.191-.827 4.326.106.826.572 1.213.932 1.53.08.052.229 0 .132-.159-.545-.65-.387-2.576.36-4.432.625 1.231 3.06 2.814 5.61 2.243zm-3.06-5.408c2.98-2.674 4.15-.282 2.26 1.16-.985.748-2.937 1.32-3.553.959l-.132-.08c-.079-.131-.158-.254-.21-.386.492-.598 1.063-1.134 1.635-1.653zm16.558-3.025c1.187.132.695-1.32-.519-.959-.545.158-1.064 1.187-1.45 2.102-1.188 1.794-3.193 4.22-4.6 5.496-1.24 1.064-2.392 1.345-.985-.65.572-.801 1.293-1.663 1.715-2.516.985-2.154-1.117-3.113-2.805-1.82-.985.747-2.313 2.313-3.35 3.166-.282.228-.211.571.079.334.826-.669 2.286-2.207 3.526-3.113 1.038-.8 1.451-.282.853.387-.827.958-2.286 2.62-2.647 3.684-.519 1.583.106 2.287 1.135 2.287 1.424 0 3.552-2.234 4.985-3.993.467-.598.985-1.292 1.425-1.97-1.24 2.41-2.541 4.855-4.15 7.053-2.287 3.113-5.145 5.452-7.844 5.452-1.953 0-3.632-1.32-3.993-3.271-.026-.211-.281-.255-.255.026.44 2.673 2.498 3.702 4.986 3.702 2.726 0 5.347-1.583 7.185-3.526 3.71-3.922 4.159-8.328 5.293-10.79.537-1.081 1.03-1.134 1.416-1.081zm15.09-3.79c.545-.932.519-1.662-.748-1.662-.958.026-2.7.694-3.5 1.319-.184.184-.105.281.133.184.158-.052.334-.158.518-.228.906-.493.546.545.335.932-1.09 1.9-3.008 4.564-4.02 5.892a19.141 19.141 0 0 1-1.564 1.855c-.977.923-2.902 2.568-4.353 3.113-4.731 1.767 1.292-6.279 1.794-6.92 1.116-1.399 3.605-3.835 4.352-5.057.546-.932.52-1.662-.747-1.662-.958.026-2.7.695-3.5 1.32-.184.184-.105.28.132.184.158-.053.334-.159.519-.229.906-.492.545.545.334.932-1.09 1.9-3.007 4.564-4.019 5.892-.826 1.108-1.846 2.234-2.62 2.85-.308.254-.132.491.185.28.281-.184.694-.598 1.16-1.09-.853 1.715-1.565 4.124.695 4.406 1.926.263 4.212-1.706 5.69-3.157.158-.159.342-.334.527-.528l.132-.132c-.853 1.715-1.556 4.116.703 4.397 2.471.334 5.532-2.981 6.719-4.195.228-.228.158-.624-.229-.228-.695.72-3.06 2.875-4.784 3.526-4.73 1.768 1.293-6.279 1.794-6.92 1.117-1.407 3.614-3.843 4.362-5.074z"/></g></svg>