<svg xmlns="http://www.w3.org/2000/svg" width="700" height="900" viewBox="0 0 700.00001 900.00001"><g transform="translate(0 -152.362)"><path fill="#e8b92c" stroke="#e8b92c" stroke-width="1.446" stroke-linecap="round" stroke-linejoin="round" d="M-80.452 99.963h868.077v974.88H-80.452z"/><path d="M184.598 511.3l8 141.5 160.5-22-5-108z" fill="none" stroke="#333" stroke-width="1.5" stroke-linecap="round" stroke-linejoin="round"/><path d="M176.098 501.8l9.5 159.5 172.5-26-4-119z" fill="none" stroke="#333" stroke-width="1.5" stroke-linecap="round" stroke-linejoin="round"/><path d="M176.236 501.776l-6.01 2.475 2.828 48.615 4.95 72.832 1.845 36.608 5.844-1.024M451.003 538.362c-9.5 10.5-31.216 11.802-70.5 48.5-28.325 26.46 20.725 38.336-.687 68.875" fill="none" stroke="#333" stroke-width="1.5" stroke-linecap="round" stroke-linejoin="round"/><path d="M356.018 514.504l4.243 121.27 171.12-8.486-2.828-112.43z" fill="#e8b92c" stroke="#333" stroke-width="1.5" stroke-linecap="round" stroke-linejoin="round"/><path d="M526.077 622.338L524.31 519.1l-162.28 1.06 2.473 109.25z" fill="none" stroke="#333" stroke-width="1.5" stroke-linecap="round" stroke-linejoin="round"/><g fill="none" stroke="#333" stroke-width="1.5" stroke-linecap="round" stroke-linejoin="round"><path d="M-33.718 769.634l754.41-137.02M739.49 638.21L-32.488 788.782"/></g><path d="M302.662 643.654l.795 15.55M200.11 526.275l7.78 112.43 28.99-3.536-7.777-106.774z" fill="none" stroke="#333" stroke-width="1.5" stroke-linecap="round" stroke-linejoin="round"/><g fill="none" stroke="#333" stroke-width="1.5" stroke-linecap="round" stroke-linejoin="round"><path d="M256.5 571.112l29.976 31.7M256.11 570.775l1.865 33.667 28.492-1.535-1.21-29.304zM259.448 603.635l25.625-29.562" transform="matrix(1.4286 0 0 1.22326 -116.54 -168.393)"/></g><g fill="none" stroke="#333" stroke-width="1.5" stroke-linecap="round" stroke-linejoin="round"><path d="M255.34 607.89l49.947-5.086M256.178 617.642l48.556-5.664M256.525 627.636l37.246-4.417"/></g><circle cx="511.099" cy="526.724" r="3.119" fill="#e8b92c" stroke="#333" stroke-width="1.5" stroke-linecap="round" stroke-linejoin="round"/><path d="M524.466 532.674l-162.074 1.622" fill="none" stroke="#333" stroke-width="1.5" stroke-linecap="round" stroke-linejoin="round"/><path d="M370.477 524.058l12.5-.093.046 6.25-12.5.093zM500.75 526.862l-12.375.203" fill="none" stroke="#333" stroke-width="1.8" stroke-linecap="round" stroke-linejoin="round"/><path d="M428.162 632.658l.632 14.323 43.67-1.38-.626-15M425.947 632.938l.62 13.202 2.102.797" fill="none" stroke="#333" stroke-width="1.5" stroke-linecap="round" stroke-linejoin="round"/><text style="line-height:125%;-inkscape-font-specification:'Lato Heavy'" x="395.631" y="553.682" transform="rotate(-.484)" font-weight="900" font-size="7.5" font-family="Lato" letter-spacing="1" word-spacing="0" fill="#333"><tspan x="395.631" y="553.682">RESPONSIVE DESIGN</tspan></text><path d="M433.28 569.76l24.375-.626" fill="none" stroke="#333" stroke-width="1.8" stroke-linecap="round" stroke-linejoin="round"/><text transform="rotate(-3.09)" y="603.484" x="202.762" style="line-height:125%" font-weight="400" font-size="10.067" font-family="Sans" letter-spacing="0" word-spacing="0" fill="#333"/><text transform="rotate(-.484)" y="564.577" x="413.395" style="line-height:125%;-inkscape-font-specification:'Lato Heavy'" font-weight="900" font-size="7.5" font-family="Lato" letter-spacing="1" word-spacing="0" fill="#333"><tspan y="564.577" x="413.395">TECHNIQUES</tspan></text><g fill="none" stroke="#333" stroke-width="1.5" stroke-linecap="round" stroke-linejoin="round"><path d="M256.5 571.112l29.976 31.7M256.11 570.775l1.865 33.667 28.492-1.535-1.21-29.304zM259.448 603.635l25.625-29.562" transform="matrix(.6814 0 0 .58347 31.764 199.807)"/></g><g stroke-width="3.199" fill="none" stroke="#333" stroke-linecap="round" stroke-linejoin="round"><path d="M208.73 565.29l15.542-1.255M208.917 568.958l18.278-1.49M208.917 572.71l14.022-1.17" stroke-width="1.20007286"/></g><path d="M263.865 650.308l1.036 16.61M259.39 650.982l.94 14.965 4.57.972 38.552-6.91" fill="none" stroke="#333" stroke-width="1.5" stroke-linecap="round" stroke-linejoin="round"/><ellipse cx="393.595" cy="915.005" rx="17.955" ry="9.476" fill="none" stroke="#333" stroke-width="1.5" stroke-linecap="round" stroke-linejoin="round"/><path d="M385.016 914.895c3.624-6.456-1.73-24.912-2.556-38.32 6.956.346 13.513-.004 20.238-.486-.538 13.156-3.48 27.504-.98 38.272" fill="#e8b92c" stroke="#333" stroke-width="1.503" stroke-linecap="round" stroke-linejoin="round"/><path d="M286.495 754.17h-15c-6.495 4.978-6.396 14.41-.5 21.5 6.5 7.5 15.5 65.5 21 72.5s18.065 5.782 23.354 9.175M478.94 751.35l14.25-2.5c6.493 4.98 6.394 14.412.5 21.5-6.5 7.5-4 69.5-9.5 76.5s-13.16 8.023-18.45 11.416" fill="none" stroke="#333" stroke-width="1.8" stroke-linecap="round" stroke-linejoin="round"/><g fill="none" stroke="#333" stroke-linecap="round" stroke-linejoin="round"><path d="M644.09 629.335c-.954-2.983-2.266-5.152-.475-10.88l-39.89 4.44c-1.785 3.25-2.293 7.923-.378 11.758zM643.66 618.272l-52.818-11.803M602.967 622.805L562.92 611.42M603.322 634.602l-39.94-11.934M562.863 611.56l.53 11.007M590.874 606.4l-27.86 4.857" stroke-width="1.71763"/></g><path d="M596.995 629.908l.082-5.802" fill="#333" stroke="#333" stroke-width="1.155" stroke-linecap="round" stroke-linejoin="round"/><g stroke="#333" stroke-linecap="round" stroke-linejoin="round"><g fill="#e8b92c" stroke-width="1.155"><path d="M577.643 609.985l.102 3.843s18.74 10.633 39.93.574l.102-4.634"/><path d="M595.73 602.9l16.047-49.946-26.003-31.827 1.43-2.655 28.39 33.904-14.588 50.873c5.228.6 10.337 1.848 16.763 6.463-.732 2.727-9.08 5.723-19.64 5.723-10.602 0-19.593-3.012-20.467-5.45 0 0 7.31-6.09 18.068-7.086z"/></g><path d="M583.04 538.24c-14.97-4.402-24.655-19.37-24.655-19.37s22.197-19.252 31.38-9.446c10.118 10.118-6.726 28.817-6.726 28.817z" fill="#e8b92c" stroke-width="1.494"/><path d="M559.454 518.627c-.485.275 17.92-.646 23.553 19.37M568.308 520.748s-1.252 9.378 10.89 10M587.403 507.163l4.23-2.253 4.67 4.67-3.515 5.072" fill="none" stroke-width="1.494"/></g><g fill="none" stroke="#333" stroke-width="1.5" stroke-linecap="round" stroke-linejoin="round"><path d="M301.5 700.362l141.375-24.125-28.375-25.875-138 22z"/><path d="M276.164 672.48l-1.768 4.508 23.335 27.047 3.978-3.8M297.642 704.3l147.402-26.06-2.196-1.922"/></g><path d="M568.028 616.642l20.5 5.5M568.028 620.642l10.5 2.75M410.652 654.79l-7.248 1.416 1.768 3.005 7.07-1.59zM414.652 660.79l-7.248 1.416 1.768 3.005 7.07-1.59zM400.652 656.79l-7.248 1.416 1.768 3.005 7.07-1.59zM390.652 658.79l-7.248 1.416 1.768 3.005 7.07-1.59zM404.652 662.79l-7.248 1.416 1.768 3.005 7.07-1.59zM373.902 661.542l-7.248 1.414 1.768 3.005 7.07-1.59zM362.866 663.767l-7.247 1.414 1.766 3.006 7.07-1.59zM351.83 665.892l-7.247 1.414 1.768 3.005 7.072-1.59zM340.795 667.892l-7.248 1.414 1.768 3.005 7.07-1.59zM329.76 669.892l-7.248 1.414 1.767 3.005 7.07-1.59zM318.724 671.892l-7.248 1.414 1.768 3.005 7.07-1.59zM307.688 673.892l-7.248 1.414 1.768 3.005 7.07-1.59zM296.652 675.892l-7.248 1.414 1.768 3.005 7.07-1.59z" fill="#e8b92c" stroke="#333" stroke-width="1.5" stroke-linecap="round" stroke-linejoin="round"/><path d="M468.494 854.32c1.18-2.148 1.808-4.584 2.06-7.06 5.52-54.56 11.672-115.423 5.51-144.502-2.862-13.5-.563-19.384-5.136-21.527a177.258 177.258 0 0 0-13.982-5.837c-65.212-24.016-131.296-5.168-159.69 5.473-9.178 3.44-9.81 3.777-12.65 8.143-4.42 6.792-1.768 7.384-1.237 22.18 1.237 34.508 9.43 91.422 23.18 130.015.946 2.66 1.707 5.2 2.98 7.61 1.62 3.064 2.05 6.8 5.865 8.585 17.262 8.08 63.813 37.66 148.926 1.663 1.69-.713 3.16-2.898 4.174-4.743z" fill="#e8b92c" stroke="#333" stroke-width="1.5" stroke-linecap="round" stroke-linejoin="round"/><path d="M379.19 749.895l1.75 37c.093.628.304 7.502 2.67 7.048" fill="none" stroke="#333" stroke-width="1.8" stroke-linecap="round" stroke-linejoin="round"/><g style="line-height:149.00000095%;-inkscape-font-specification:'Lato Heavy'" font-weight="900" font-size="7.5" font-family="Lato" letter-spacing="1" word-spacing="0" fill="#333"><path d="M257.698 584.07q.038.592-.135 1.114-.17.522-.516.923-.347.398-.857.645-.506.247-1.142.288-.637.04-1.174-.14-.538-.18-.936-.53-.395-.353-.633-.85-.235-.495-.273-1.086-.038-.592.132-1.113.173-.522.52-.92.35-.398.86-.645t1.146-.287q.636-.04 1.17.142.538.18.933.53.394.35.63.847.237.496.275 1.083zm-1.295.083q-.026-.404-.15-.72-.127-.318-.34-.53-.21-.212-.5-.313-.293-.102-.656-.078-.367.023-.647.16-.277.14-.46.377-.18.236-.265.568-.084.33-.058.733.026.41.152.727.124.316.333.528.213.21.505.313.296.098.662.074.363-.023.64-.158.277-.138.457-.375.184-.238.268-.566.084-.333.058-.74zM260.63 584.792l.118 1.822-1.265.08-.35-5.45 1.924-.125q.576-.038.997.074.424.11.705.33.284.223.432.54.148.318.172.696.026.408-.083.757-.108.35-.362.61t-.66.425q-.403.16-.968.197l-.66.042zm-.06-.955l.658-.042q.494-.032.696-.28.202-.25.175-.674-.013-.186-.08-.336-.065-.15-.188-.25-.12-.106-.3-.154-.175-.05-.415-.034l-.658.042.11 1.73zM268.87 580.618l.065 1.003-1.534.1.286 4.45-1.265.08-.284-4.45-1.534.1-.065-1.004 4.334-.278zM272.132 585.884l-1.273.082-.35-5.453 1.272-.08.35 5.45zM276.77 583.084q.084.137.162.287.08.15.155.306.053-.168.114-.326.062-.162.127-.313l1.223-2.844q.033-.074.068-.113.04-.044.086-.066.048-.022.107-.03.065-.008.147-.013l.966-.06.35 5.452-1.116.07-.2-3.135q-.016-.228-.01-.495l-1.265 2.895q-.06.136-.17.21-.11.075-.255.085l-.172.01q-.146.01-.266-.05-.118-.06-.193-.187l-1.632-2.713q.023.13.04.26.015.127.022.235l.2 3.136-1.114.072-.35-5.453.966-.062q.08-.005.14-.005.065 0 .115.016t.09.055q.043.035.085.103l1.58 2.676zM283.556 585.15l-1.272.083-.35-5.452 1.273-.08.35 5.45zM289.207 579.314l.03.457q.005.098-.022.194-.024.095-.075.18l-2.326 3.822 2.598-.167.062.972-4.206.27-.032-.487q-.005-.086.02-.17.024-.088.072-.163l2.332-3.832-2.47.16-.062-.974 4.08-.262zM292.51 584.577l-1.272.082-.35-5.454 1.273-.08.35 5.45zM294.838 578.953q.082-.005.14-.002.055.006.102.025.046.015.09.05.043.035.1.095l2.8 3.11q-.026-.157-.043-.303-.016-.15-.025-.28l-.185-2.885 1.115-.072.35 5.453-.66.042q-.145.01-.25-.03-.102-.038-.204-.15l-2.78-3.085.038.28q.016.134.024.254l.187 2.922-1.115.072-.35-5.453.667-.042zM303.685 582.944q.262-.017.46-.075.2-.06.375-.145l-.053-.827-.538.034q-.12.008-.193-.05-.07-.06-.077-.158l-.045-.696 1.94-.124.146 2.3q-.2.168-.42.295-.217.122-.47.21-.25.087-.54.14-.287.052-.62.073-.598.038-1.12-.14-.523-.18-.92-.526-.396-.35-.642-.846-.242-.498-.28-1.097-.04-.61.13-1.132.17-.524.52-.92.354-.393.872-.633.522-.24 1.18-.283.34-.022.644.015.303.036.56.118.26.08.48.202.217.12.392.268l-.33.58q-.05.083-.12.132-.07.05-.155.055-.11.008-.236-.06-.155-.08-.294-.135-.135-.06-.276-.09-.142-.033-.296-.042-.155-.01-.346.003-.355.024-.63.17-.278.14-.465.382-.184.24-.272.57-.088.325-.063.718.028.434.17.763.14.33.365.548.228.22.524.325.3.1.645.08zM256.816 592.59l.065 1.002-1.534.1.286 4.448-1.265.08-.286-4.448-1.533.098-.064-1.003 4.333-.278zM263.453 597.64l-1.273.08-.148-2.305-2.215.142.148 2.305-1.273.082-.35-5.453 1.273-.08.146 2.28 2.217-.143-.146-2.28 1.273-.08.35 5.452zM268.508 591.84l.063.972-2.237.144.08 1.272 1.715-.11.06.936-1.714.11.084 1.3 2.238-.145.062.972-3.51.225-.35-5.452 3.51-.226zM272.254 591.6l1.063-.07q.165-.01.278.058.117.068.16.19l.93 2.796q.046.136.093.29.048.155.078.326.026-.178.06-.334l.068-.302.7-2.9q.028-.107.13-.197.108-.093.265-.103l.373-.024q.165-.01.274.058.113.064.163.188l1.058 2.788.104.275q.054.143.1.31.018-.168.038-.32.024-.15.05-.284l.566-2.893q.023-.11.13-.2.107-.09.264-.1l.995-.063-1.334 5.56-1.144.074-1.242-3.314q-.032-.076-.067-.168-.033-.092-.066-.195-.018.106-.042.202-.02.094-.04.174l-.825 3.446-1.145.074-2.034-5.345zM285.185 590.77l.062.973-2.237.144.08 1.272 1.715-.11.06.935-1.714.11.084 1.298 2.238-.143.063.973-3.51.225-.35-5.453 3.51-.225zM287.247 596.113l-.35-5.453 2.006-.128q.565-.037.97.043.402.08.665.254t.393.44q.134.265.156.602.012.183-.03.36-.04.17-.144.328-.102.157-.27.29-.17.132-.41.238.547.096.825.376.277.275.306.735.022.347-.093.655-.116.308-.363.55-.244.237-.618.39-.375.147-.865.178l-2.178.14zm1.117-2.394l.087 1.357.89-.057q.252-.016.405-.09.157-.074.24-.18.084-.107.11-.237.025-.13.016-.26-.008-.15-.057-.267-.045-.117-.148-.193-.1-.077-.26-.11-.16-.036-.398-.02l-.883.056zm-.055-.847l.658-.042q.21-.013.376-.053.167-.04.278-.123.115-.083.166-.218.055-.135.043-.333-.012-.195-.07-.32-.056-.127-.162-.2-.106-.07-.265-.094-.156-.025-.37-.012l-.74.048.086 1.347z"/></g><g fill="none" stroke="#333" stroke-width="1.5" stroke-linecap="round" stroke-linejoin="round"><path d="M254.11 590.746l50.094-3.35M254.61 600.52l48.723-3.974M254.61 610.52l37.377-3.12" transform="matrix(1.48507 .02918 -.06958 .98405 71.008 -2.002)"/></g><path d="M-548.825 438.82l912.802-138.435M563.748 860.982l820.878-185.103" fill="none" stroke="#333" stroke-width="1.5" stroke-linecap="round" stroke-linejoin="round"/></g></svg>