<svg xmlns="http://www.w3.org/2000/svg" width="700" height="900" viewBox="0 0 700.00001 900.00001"><g transform="translate(0 -152.362)"><path fill="#e8b92c" stroke="#e8b92c" stroke-width="1.446" stroke-linecap="round" stroke-linejoin="round" d="M-80.452 99.963h868.077v974.88H-80.452z"/><path d="M184.598 511.299l8 141.5 160.5-22-5-108z" fill="none" stroke="#333" stroke-width="1.5" stroke-linecap="round" stroke-linejoin="round"/><path d="M176.098 501.799l9.5 159.5 172.5-26-4-119z" fill="none" stroke="#333" stroke-width="1.5" stroke-linecap="round" stroke-linejoin="round"/><path d="M176.236 501.776l-6.01 2.475 2.828 48.614 4.95 72.832 1.845 36.608 5.845-1.024M451.003 538.362c-9.5 10.5-31.216 11.802-70.5 48.5-28.325 26.461 20.725 38.336-.687 68.875" fill="none" stroke="#333" stroke-width="1.5" stroke-linecap="round" stroke-linejoin="round"/><path d="M356.018 514.504l4.243 121.269 171.12-8.485-2.829-112.43z" fill="#e8b92c" stroke="#333" stroke-width="1.5" stroke-linecap="round" stroke-linejoin="round"/><path d="M526.077 622.338L524.31 519.1l-162.281 1.061 2.474 109.248z" fill="none" stroke="#333" stroke-width="1.5" stroke-linecap="round" stroke-linejoin="round"/><g fill="none" stroke="#333" stroke-width="1.5" stroke-linecap="round" stroke-linejoin="round"><path d="M-33.718 769.634l754.41-137.02M739.49 638.21L-32.488 788.782"/></g><path d="M302.662 643.654l.795 15.549M200.111 526.275l7.778 112.43 28.992-3.536-7.778-106.773z" fill="none" stroke="#333" stroke-width="1.5" stroke-linecap="round" stroke-linejoin="round"/><g fill="none" stroke="#333" stroke-width="1.5" stroke-linecap="round" stroke-linejoin="round"><path d="M256.5 571.112l29.976 31.701M256.111 570.775l1.864 33.667 28.492-1.535-1.209-29.304zM259.448 603.635l25.625-29.562" transform="matrix(1.4286 0 0 1.22326 -116.54 -168.393)"/></g><g fill="none" stroke="#333" stroke-width="1.5" stroke-linecap="round" stroke-linejoin="round"><path d="M255.339 607.89l49.948-5.086M256.178 617.642l48.556-5.664M256.525 627.636l37.246-4.417"/></g><circle cx="511.099" cy="526.724" r="3.119" fill="#e8b92c" stroke="#333" stroke-width="1.5" stroke-linecap="round" stroke-linejoin="round"/><path d="M524.466 532.674l-162.074 1.622" fill="none" stroke="#333" stroke-width="1.5" stroke-linecap="round" stroke-linejoin="round"/><path d="M370.477 524.058l12.5-.093.046 6.25-12.5.093zM500.75 526.862l-12.375.203" fill="none" stroke="#333" stroke-width="1.8" stroke-linecap="round" stroke-linejoin="round"/><path d="M428.162 632.658l.632 14.323 43.67-1.381-.626-15M425.947 632.938l.621 13.202 2.1.797" fill="none" stroke="#333" stroke-width="1.5" stroke-linecap="round" stroke-linejoin="round"/><text style="line-height:125%;-inkscape-font-specification:'Lato Heavy'" x="395.631" y="553.682" transform="rotate(-.484)" font-weight="900" font-size="7.5" font-family="Lato" letter-spacing="1" word-spacing="0" fill="#333"><tspan x="395.631" y="553.682">RESPONSIVE DESIGN</tspan></text><path d="M433.28 569.759l24.375-.625" fill="none" stroke="#333" stroke-width="1.8" stroke-linecap="round" stroke-linejoin="round"/><text transform="rotate(-3.091)" y="603.484" x="202.762" style="line-height:125%" font-weight="400" font-size="10.067" font-family="Sans" letter-spacing="0" word-spacing="0" fill="#333"/><text transform="rotate(-.484)" y="564.577" x="413.395" style="line-height:125%;-inkscape-font-specification:'Lato Heavy'" font-weight="900" font-size="7.5" font-family="Lato" letter-spacing="1" word-spacing="0" fill="#333"><tspan y="564.577" x="413.395">TECHNIQUES</tspan></text><g fill="none" stroke="#333" stroke-width="1.5" stroke-linecap="round" stroke-linejoin="round"><path d="M256.5 571.112l29.976 31.701M256.111 570.775l1.864 33.667 28.492-1.535-1.209-29.304zM259.448 603.635l25.625-29.562" transform="matrix(.6814 0 0 .58347 31.764 199.807)"/></g><g stroke-width="3.199" fill="none" stroke="#333" stroke-linecap="round" stroke-linejoin="round"><path d="M208.73 565.291l15.542-1.256M208.917 568.958l18.278-1.491M208.917 572.71l14.022-1.171" stroke-width="1.20007286"/></g><path d="M263.865 650.308l1.036 16.61M259.39 650.982l.94 14.965 4.571.972 38.55-6.91" fill="none" stroke="#333" stroke-width="1.5" stroke-linecap="round" stroke-linejoin="round"/><ellipse cx="393.595" cy="915.005" rx="17.955" ry="9.476" fill="none" stroke="#333" stroke-width="1.5" stroke-linecap="round" stroke-linejoin="round"/><path d="M385.016 914.895c3.624-6.456-1.73-24.912-2.556-38.32 6.956.346 13.513-.004 20.238-.486-.538 13.157-3.48 27.505-.98 38.273" fill="#e8b92c" stroke="#333" stroke-width="1.503" stroke-linecap="round" stroke-linejoin="round"/><path d="M286.495 754.169h-15c-6.495 4.98-6.396 14.412-.5 21.5 6.5 7.5 15.5 65.5 21 72.5s18.065 5.783 23.354 9.176M478.939 751.35l14.25-2.5c6.494 4.98 6.395 14.412.5 21.5-6.5 7.5-4 69.5-9.5 76.5s-13.16 8.023-18.448 11.416" fill="none" stroke="#333" stroke-width="1.8" stroke-linecap="round" stroke-linejoin="round"/><g fill="none" stroke="#333" stroke-linecap="round" stroke-linejoin="round"><path d="M644.089 629.335c-.953-2.983-2.265-5.152-.474-10.88l-39.89 4.439c-1.785 3.25-2.293 7.924-.378 11.759zM643.66 618.272l-52.818-11.803M602.967 622.805l-40.048-11.386M603.322 634.602l-39.941-11.934M562.863 611.56l.531 11.007M590.874 606.399l-27.86 4.858" stroke-width="1.71763"/></g><path d="M596.995 629.908l.082-5.802" fill="#333" stroke="#333" stroke-width="1.155" stroke-linecap="round" stroke-linejoin="round"/><g stroke="#333" stroke-linecap="round" stroke-linejoin="round"><g fill="#e8b92c" stroke-width="1.155"><path d="M577.643 609.985l.102 3.843s18.74 10.633 39.93.574l.102-4.634"/><path d="M595.731 602.9l16.046-49.946-26.003-31.827 1.43-2.655 28.39 33.904-14.588 50.873c5.228.6 10.337 1.85 16.763 6.464-.73 2.727-9.08 5.723-19.638 5.723-10.603 0-19.594-3.012-20.468-5.45 0 0 7.31-6.09 18.068-7.086z"/></g><path d="M583.04 538.24c-14.97-4.402-24.655-19.37-24.655-19.37s22.197-19.252 31.38-9.446c10.118 10.118-6.726 28.817-6.726 28.817z" fill="#e8b92c" stroke-width="1.494"/><path d="M559.454 518.627c-.485.275 17.92-.646 23.553 19.371M568.308 520.748s-1.252 9.378 10.889 10M587.403 507.163l4.23-2.253 4.67 4.67-3.515 5.072" fill="none" stroke-width="1.494"/></g><g fill="none" stroke="#333" stroke-width="1.5" stroke-linecap="round" stroke-linejoin="round"><path d="M301.5 700.362l141.375-24.125-28.375-25.875-138 22z"/><path d="M276.164 672.48l-1.768 4.508 23.335 27.047 3.977-3.8M297.642 704.3l147.402-26.06-2.196-1.922"/></g><path d="M568.028 616.642l20.5 5.5M568.028 620.642l10.5 2.75M410.652 654.791l-7.248 1.415 1.768 3.005 7.071-1.591zM414.652 660.791l-7.248 1.415 1.768 3.005 7.071-1.591zM400.652 656.791l-7.248 1.415 1.768 3.005 7.071-1.591zM390.652 658.791l-7.248 1.415 1.768 3.005 7.071-1.591zM404.652 662.791l-7.248 1.415 1.768 3.005 7.071-1.591zM373.902 661.542l-7.248 1.414 1.768 3.005 7.071-1.59zM362.866 663.767l-7.247 1.414 1.767 3.005 7.071-1.59zM351.83 665.892l-7.247 1.414 1.768 3.005 7.07-1.59zM340.795 667.892l-7.248 1.414 1.768 3.005 7.071-1.59zM329.76 669.892l-7.248 1.414 1.767 3.005 7.071-1.59zM318.724 671.892l-7.248 1.414 1.768 3.005 7.07-1.59zM307.688 673.892l-7.248 1.414 1.768 3.005 7.07-1.59zM296.652 675.892l-7.248 1.414 1.768 3.005 7.071-1.59z" fill="#e8b92c" stroke="#333" stroke-width="1.5" stroke-linecap="round" stroke-linejoin="round"/><path d="M468.494 854.32c1.18-2.148 1.808-4.584 2.059-7.06 5.521-54.56 11.673-115.423 5.51-144.502-2.861-13.501-.562-19.384-5.135-21.527a177.258 177.258 0 0 0-13.982-5.838c-65.212-24.016-131.296-5.168-159.69 5.473-9.178 3.44-9.81 3.777-12.65 8.143-4.419 6.793-1.768 7.385-1.237 22.182 1.238 34.507 9.43 91.421 23.18 130.014.947 2.66 1.708 5.201 2.982 7.61 1.62 3.064 2.05 6.8 5.864 8.585 17.262 8.081 63.813 37.66 148.926 1.663 1.688-.713 3.158-2.898 4.173-4.743z" fill="#e8b92c" stroke="#333" stroke-width="1.5" stroke-linecap="round" stroke-linejoin="round"/><path d="M379.19 749.895l1.75 37c.093.628.304 7.502 2.67 7.048" fill="none" stroke="#333" stroke-width="1.8" stroke-linecap="round" stroke-linejoin="round"/><g style="line-height:149.00000095%;-inkscape-font-specification:'Lato Heavy'" font-weight="900" font-size="7.5" font-family="Lato" letter-spacing="1" word-spacing="0" fill="#333"><path d="M257.698 584.07q.038.592-.135 1.114-.17.522-.516.923-.347.398-.857.645-.506.247-1.142.288-.637.04-1.174-.14-.538-.179-.936-.529-.395-.354-.633-.85-.235-.496-.273-1.087-.038-.592.132-1.113.173-.523.52-.92.35-.399.86-.646t1.146-.287q.636-.041 1.17.142.538.18.933.53.394.351.629.847.238.496.276 1.083zm-1.295.083q-.026-.404-.151-.719-.126-.319-.339-.53-.209-.213-.5-.314-.293-.102-.656-.078-.367.023-.647.161-.277.138-.46.376-.181.237-.265.569-.084.329-.058.733.026.408.152.726.125.316.334.528.213.211.505.313.296.098.662.074.363-.023.64-.158.277-.138.457-.375.184-.237.268-.565.084-.333.058-.74zM260.631 584.792l.117 1.822-1.265.081-.35-5.452 1.924-.124q.576-.037.997.075.424.109.705.331.285.222.433.54.148.317.172.695.026.408-.083.757-.11.349-.363.61-.254.26-.66.425-.403.161-.968.197l-.659.043zm-.061-.955l.658-.042q.494-.032.696-.281.202-.25.175-.673-.012-.187-.078-.337-.066-.15-.189-.25-.12-.106-.299-.154-.176-.05-.416-.034l-.658.042.11 1.73zM268.87 580.618l.065 1.003-1.534.099.285 4.45-1.265.08-.285-4.45-1.534.1-.065-1.004 4.334-.278zM272.132 585.884l-1.273.082-.35-5.453 1.273-.081.35 5.452zM276.77 583.084q.084.137.162.287.08.148.155.305.053-.168.114-.326.06-.162.126-.313l1.223-2.844q.033-.074.068-.113.039-.044.086-.066.048-.022.107-.03.064-.008.146-.013l.966-.062.35 5.453-1.116.071-.201-3.136q-.015-.228-.01-.495l-1.264 2.895q-.06.136-.17.21-.109.075-.255.085l-.172.01q-.146.01-.266-.05-.117-.06-.192-.187l-1.632-2.713q.023.13.039.26.016.127.023.235l.201 3.136-1.115.072-.35-5.453.966-.062q.082-.005.142-.005.064 0 .114.016.05.015.09.054.043.035.085.103l1.581 2.676zM283.556 585.151l-1.272.082-.35-5.452 1.273-.082.35 5.452zM289.207 579.314l.029.457q.006.097-.021.193-.024.095-.075.181l-2.326 3.82 2.598-.166.062.973-4.206.27-.032-.487q-.005-.086.02-.17.024-.088.072-.163l2.332-3.832-2.47.159-.062-.973 4.079-.262zM292.51 584.577l-1.272.082-.35-5.453 1.273-.081.35 5.452zM294.838 578.953q.082-.005.139-.002.056.005.103.024.046.015.09.05.043.035.1.095l2.799 3.109q-.025-.156-.042-.302-.016-.15-.025-.28l-.185-2.885 1.115-.072.35 5.453-.659.042q-.146.01-.25-.03-.103-.038-.205-.151l-2.779-3.084q.02.142.037.28.016.134.024.254l.187 2.922-1.115.072-.35-5.453.667-.042zM303.685 582.944q.262-.017.461-.075.2-.058.374-.144l-.053-.827-.538.034q-.12.008-.192-.051-.071-.06-.077-.157l-.045-.696 1.939-.124.147 2.301q-.2.167-.42.294-.218.123-.472.21-.25.088-.54.14-.286.053-.619.074-.598.038-1.12-.139-.523-.18-.921-.527-.395-.35-.64-.846-.243-.499-.282-1.098-.039-.61.13-1.132.17-.525.52-.92.355-.394.873-.634.522-.24 1.18-.283.34-.022.644.015.303.037.56.119.26.08.479.202.218.121.393.268l-.331.58q-.048.083-.12.132-.068.05-.154.055-.112.008-.237-.06-.155-.08-.294-.135-.135-.059-.276-.091-.142-.032-.296-.041-.155-.009-.346.003-.355.023-.631.168-.277.142-.464.383-.184.241-.272.57-.088.325-.063.718.028.434.17.763.14.33.365.548.228.219.524.324.3.1.644.079zM256.816 592.59l.065 1.002-1.535.099.286 4.45-1.265.08-.286-4.45-1.534.1-.064-1.004 4.333-.278zM263.453 597.639l-1.273.081-.148-2.305-2.215.142.148 2.305-1.273.082-.35-5.453 1.273-.081.146 2.279 2.216-.142-.146-2.28 1.272-.08.35 5.452zM268.508 591.84l.063.972-2.238.144.081 1.272 1.714-.11.06.936-1.714.11.084 1.299 2.238-.144.062.973-3.51.225-.35-5.452 3.51-.226zM272.254 591.6l1.063-.069q.165-.01.278.057.117.068.159.19l.93 2.796q.047.136.094.29.048.155.078.326.026-.178.06-.334l.068-.302.7-2.9q.028-.107.13-.197.108-.093.265-.103l.374-.024q.165-.01.274.058.113.064.163.188l1.058 2.788q.05.129.104.275.054.144.099.31l.04-.318q.023-.152.049-.285l.566-2.893q.023-.11.13-.2.107-.09.264-.1l.995-.063-1.334 5.56-1.145.074-1.242-3.314q-.032-.076-.067-.168-.033-.092-.066-.195-.02.106-.043.202-.02.095-.041.175l-.824 3.446-1.145.074-2.034-5.345zM285.185 590.77l.062.973-2.237.144.081 1.272 1.714-.11.06.936-1.714.11.083 1.298 2.238-.143.063.973-3.51.225-.35-5.453 3.51-.225zM287.247 596.113l-.35-5.453 2.006-.128q.565-.037.969.043.403.079.666.254t.393.44q.133.266.155.603.012.183-.03.359-.041.172-.144.329-.102.157-.27.291-.169.131-.41.237.547.096.825.376.277.275.306.735.022.348-.093.656-.116.308-.363.55-.244.237-.618.389-.374.148-.864.18l-2.178.139zm1.117-2.394l.087 1.358.89-.057q.251-.016.404-.09.157-.074.24-.18.084-.107.11-.237.025-.129.016-.26-.01-.15-.058-.267-.045-.117-.148-.193-.099-.077-.259-.111-.16-.035-.4-.02l-.882.057zm-.055-.846l.659-.042q.21-.014.376-.054.167-.041.278-.123.115-.083.166-.218.055-.135.043-.333-.013-.195-.07-.319-.057-.128-.163-.2-.106-.072-.265-.095-.156-.024-.37-.01l-.74.047.086 1.347z"/></g><g fill="none" stroke="#333" stroke-width="1.5" stroke-linecap="round" stroke-linejoin="round"><path d="M254.11 590.746l50.094-3.35M254.61 600.52l48.723-3.974M254.61 610.52l37.377-3.12" transform="matrix(1.48507 .02918 -.06958 .98405 71.008 -2.002)"/></g><path d="M-548.825 438.82l912.802-138.435M563.748 860.982l820.878-185.103" fill="none" stroke="#333" stroke-width="1.5" stroke-linecap="round" stroke-linejoin="round"/></g></svg>