<?xml version="1.0" encoding="UTF-8" standalone="no"?>
<!-- Created with Inkscape (http://www.inkscape.org/) -->

<svg
   xmlns:dc="http://purl.org/dc/elements/1.1/"
   xmlns:cc="http://creativecommons.org/ns#"
   xmlns:rdf="http://www.w3.org/1999/02/22-rdf-syntax-ns#"
   xmlns:svg="http://www.w3.org/2000/svg"
   xmlns="http://www.w3.org/2000/svg"
   xmlns:sodipodi="http://sodipodi.sourceforge.net/DTD/sodipodi-0.dtd"
   xmlns:inkscape="http://www.inkscape.org/namespaces/inkscape"
   width="150"
   height="150"
   viewBox="0 0 150.00001 150.00001"
   id="svg2"
   version="1.1"
   inkscape:version="0.91 r13725"
   sodipodi:docname="jekyll.svg">
  <defs
     id="defs4" />
  <sodipodi:namedview
     id="base"
     pagecolor="#ffffff"
     bordercolor="#666666"
     borderopacity="1.0"
     inkscape:pageopacity="0.0"
     inkscape:pageshadow="2"
     inkscape:zoom="2.8"
     inkscape:cx="30.059754"
     inkscape:cy="123.77214"
     inkscape:document-units="px"
     inkscape:current-layer="layer1"
     showgrid="false"
     units="px"
     fit-margin-top="0"
     fit-margin-left="0"
     fit-margin-right="0"
     fit-margin-bottom="0" />
  <metadata
     id="metadata7">
    <rdf:RDF>
      <cc:Work
         rdf:about="">
        <dc:format>image/svg+xml</dc:format>
        <dc:type
           rdf:resource="http://purl.org/dc/dcmitype/StillImage" />
        <dc:title></dc:title>
      </cc:Work>
    </rdf:RDF>
  </metadata>
  <g
     inkscape:label="Layer 1"
     inkscape:groupmode="layer"
     id="layer1"
     transform="translate(-290.71429,-397.36221)">
    <g
       transform="matrix(0.08793577,0,0,0.08793577,323.32324,451.15649)"
       id="g3813"
       style="fill:#333333">
      <path
         id="tube_1_"
         d="m 753.6,412.9 0,0 c -5,0 -9.9,-0.9 -14.6,-2.7 -19.7,-7.5 -30.1,-28.9 -24.7,-48.7 l -0.2,-0.1 1.3,-3.4 100.1,-260 c 1.5,-3.8 0.8,-13 0.1,-18.1 -0.2,-1.2 -0.2,-2.3 0.1,-3.4 l 0.1,-0.2 c 0.1,-0.2 0.1,-0.4 0.2,-0.6 1.6,-4.2 6.5,-6.3 14.5,-6.3 9.6,0 22.9,3 36.5,8.2 11.4,4.4 21.8,9.9 29.1,15.4 8.6,6.5 12,12.3 10.1,17.3 -0.1,0.2 -0.2,0.4 -0.3,0.6 l -0.1,0.2 c -0.5,1 -1.2,1.8 -2.1,2.5 -4.4,3.9 -10.9,10.5 -12,13.5 l -101.3,263.6 -0.2,-0.1 c -7.1,13.6 -21,22.3 -36.6,22.3 z m -31.3,-53.2 -0.3,0.7 c -6.4,17.2 2.3,36.6 19.5,43.2 3.9,1.5 7.9,2.2 12,2.2 13.9,0 26.2,-8.3 31.3,-21.3 l 0.4,-0.9 99.6,-258.9 c 2.1,-5.6 12,-14.5 14,-16.3 l 0.2,-0.2 c 0.2,-0.1 0.3,-0.2 0.3,-0.3 l 0.1,-0.1 c 0.1,-0.7 -0.8,-3.8 -7.8,-9.2 -6.7,-5.1 -16.4,-10.2 -27.3,-14.4 -12.6,-4.9 -25.4,-7.8 -34,-7.8 -5.7,0 -7.6,1.2 -7.9,1.8 l 0,0.1 c 0,0.1 0,0.2 0,0.4 l 0,0.1 c 0.2,1.5 2.1,14.8 -0.5,21.7 l -99.6,259.2 z"
         inkscape:connector-curvature="0"
         style="fill:#333333" />
      <path
         id="liquid_1_"
         d="m 850.4,195 c 0,0 -13.8,15.9 -26.4,21.6 -12.6,5.7 -21.9,4.2 -33.2,10.8 -11.3,6.6 -17,15.8 -17,15.8 l -46,119.7 c -5,13.5 2.4,29.3 16.1,34.6 13.7,5.3 29.2,-1.7 34.5,-15.1 l 0,0 72,-187.4 z m -46.3,69.1 c 2.2,-1 4.8,0 5.7,2.2 1,2.2 0,4.8 -2.2,5.7 -2.2,1 -4.8,0 -5.7,-2.2 -1.1,-2.2 0,-4.8 2.2,-5.7 z m -18.5,-19.7 c 1.5,-0.6 3.2,0 3.8,1.5 0.6,1.5 0,3.2 -1.5,3.8 -1.5,0.6 -3.2,0 -3.8,-1.5 -0.6,-1.5 0.1,-3.2 1.5,-3.8 z m -20.3,67.7 c -2.2,1 -4.8,0 -5.7,-2.2 -1,-2.2 0,-4.8 2.2,-5.7 2.2,-1 4.8,0 5.7,2.2 1.1,2.2 0.1,4.7 -2.2,5.7 z m 4.1,-15.7 c -1.8,-4.1 0,-8.9 4.1,-10.8 4.1,-1.8 8.9,0 10.8,4.1 1.8,4.1 0,8.9 -4.1,10.8 -4.2,1.8 -9,0 -10.8,-4.1 z m 10.4,41.5 c 1.5,-0.6 3.2,0 3.8,1.5 0.6,1.5 0,3.2 -1.5,3.8 -1.5,0.6 -3.2,0 -3.8,-1.5 -0.6,-1.4 0,-3.1 1.5,-3.8 z"
         style="fill:#333333;fill-opacity:1"
         inkscape:connector-curvature="0" />
      <ellipse
         id="top_1_"
         transform="matrix(0.359,-0.9333,0.9333,0.359,461.7702,863.8233)"
         cx="859.79999"
         cy="95.699997"
         rx="7.3000002"
         ry="27.799999"
         style="fill:#333333" />
      <path
         d="m 250.5,228.2 c 4.4,3.5 12.4,1.5 17.8,-4.4 5.6,-6.2 6.5,-14.1 2.1,-17.7 -4.4,-3.5 -12.4,-1.5 -17.8,4.7 -5.7,6.3 -6.7,13.9 -2.1,17.4 z m -13.1,11.5 c -1.2,0 -3.2,2.1 -1.5,2.9 2.4,0.9 3.5,2.9 3.5,5.9 -2.1,12.1 -17.1,26 -23.1,30.7 -1.5,1.5 0.6,4.7 2.1,3.5 3.2,-2.6 10,-7.9 15.6,-15 -9.1,20.4 -26.9,46.6 -33.7,55.8 -26.6,36.9 -67,70.8 -94.8,70.8 -22.2,0 -41,-15 -45.1,-37.2 -0.3,-2.4 -3.5,-2.9 -2.9,0.3 5,30.4 28.4,42.1 56.7,42.1 31,0 67.4,-22.5 87.4,-45.4 32.4,-37.2 53.5,-79.9 47.8,-104.1 -2.2,-9.1 -8.5,-10.6 -12,-10.3 z m 199.2,80.9 c 8.5,-2.1 15.6,-6.8 15.6,-14.2 0,-0.7 -1.5,-0.7 -1.5,0 0,4.4 -5,8 -10.6,8.9 -13.2,2.1 -39.5,-13.5 -51.9,-29.5 13.2,5 40.4,-2.3 53.2,-11.4 11.8,-8.5 16.5,-18 17.5,-25.7 1.5,-12.6 -12.4,-20.1 -31.6,-12.6 -12.4,5 -27.2,15.9 -42.5,36.3 16.2,-26.9 48.1,-70.5 79.4,-98.5 38.1,-33.9 60.2,-27.4 26,8.5 -14.1,14.7 -40.7,33.9 -59.1,42.2 -5.6,2.4 -2.9,5.6 1.2,3.8 19.5,-8.5 45.4,-26.3 61.1,-41 46.3,-44.5 7.7,-78.1 -43.7,-31 -34.8,32.2 -57.6,65.8 -77.3,109.4 -6.8,8.2 -11.8,15 -18.1,20.4 -0.7,0.6 -1.3,1.3 -1.8,1.9 -17,14.6 -43.8,34.3 -60.5,34.6 -11.8,0.3 -16.8,-8.5 -14.7,-20.1 3.2,-18 21.9,-39.2 37.8,-46.6 20.7,-9.4 32.8,8.8 5.6,23.6 -10.3,5.3 -22.8,8.2 -27.8,8.2 -5.9,0 -5.3,2.4 -0.3,2.6 8.2,0.3 21.6,-3.2 30.4,-7.4 27.8,-13.2 29.5,-38 -0.6,-38.9 -32.8,-1.2 -72,26.9 -71.7,62 0.3,15.9 13,24.5 30.4,24.5 29,-0.3 54.9,-22.4 76,-41.7 3,-2.5 6,-5.3 8.9,-8.2 -7.4,18.9 -11.2,36.3 -9.4,49.2 1.2,9.4 6.5,13.8 10.6,17.4 0.9,0.6 2.6,0 1.5,-1.8 -6.2,-7.4 -4.4,-29.3 4.1,-50.4 7.1,14 34.8,32 63.8,25.5 z m -34.8,-61.5 c 33.9,-30.4 47.2,-3.2 25.7,13.2 -11.2,8.5 -33.4,15 -40.4,10.9 l -1.5,-0.9 c -0.9,-1.5 -1.8,-2.9 -2.4,-4.4 5.6,-6.8 12.1,-12.9 18.6,-18.8 z m 188.3,-34.4 c 13.5,1.5 7.9,-15 -5.9,-10.9 -6.2,1.8 -12.1,13.5 -16.5,23.9 -13.5,20.4 -36.3,48 -52.3,62.5 -14.1,12.1 -27.2,15.3 -11.2,-7.4 6.5,-9.1 14.7,-18.9 19.5,-28.6 11.2,-24.5 -12.7,-35.4 -31.9,-20.7 -11.2,8.5 -26.3,26.3 -38.1,36 -3.2,2.6 -2.4,6.5 0.9,3.8 9.4,-7.6 26,-25.1 40.1,-35.4 11.8,-9.1 16.5,-3.2 9.7,4.4 -9.4,10.9 -26,29.8 -30.1,41.9 -5.9,18 1.2,26 12.9,26 16.2,0 40.4,-25.4 56.7,-45.4 5.3,-6.8 11.2,-14.7 16.2,-22.4 -14.1,27.4 -28.9,55.2 -47.2,80.2 -26,35.4 -58.5,62 -89.2,62 -22.2,0 -41.3,-15 -45.4,-37.2 -0.3,-2.4 -3.2,-2.9 -2.9,0.3 5,30.4 28.4,42.1 56.7,42.1 31,0 60.8,-18 81.7,-40.1 C 556,315.1 561.1,265 574,237 c 6.1,-12.3 11.7,-12.9 16.1,-12.3 z m 171.6,-43.1 c 6.2,-10.6 5.9,-18.9 -8.5,-18.9 -10.9,0.3 -30.7,7.9 -39.8,15 -2.1,2.1 -1.2,3.2 1.5,2.1 1.8,-0.6 3.8,-1.8 5.9,-2.6 10.3,-5.6 6.2,6.2 3.8,10.6 -12.4,21.6 -34.2,51.9 -45.7,67 -5.5,7.4 -11.7,14.8 -17.8,21.1 -11.1,10.5 -33,29.2 -49.5,35.4 -53.8,20.1 14.7,-71.4 20.4,-78.7 12.7,-15.9 41,-43.6 49.5,-57.5 6.2,-10.6 5.9,-18.9 -8.5,-18.9 -10.9,0.3 -30.7,7.9 -39.8,15 -2.1,2.1 -1.2,3.2 1.5,2.1 1.8,-0.6 3.8,-1.8 5.9,-2.6 10.3,-5.6 6.2,6.2 3.8,10.6 -12.4,21.6 -34.2,51.9 -45.7,67 -9.4,12.6 -21,25.4 -29.8,32.4 -3.5,2.9 -1.5,5.6 2.1,3.2 3.2,-2.1 7.9,-6.8 13.2,-12.4 -9.7,19.5 -17.8,46.9 7.9,50.1 21.9,3 47.9,-19.4 64.7,-35.9 1.8,-1.8 3.9,-3.8 6,-6 0.5,-0.5 1,-1 1.5,-1.5 -9.7,19.5 -17.7,46.8 8,50 28.1,3.8 62.9,-33.9 76.4,-47.7 2.6,-2.6 1.8,-7.1 -2.6,-2.6 -7.9,8.2 -34.8,32.7 -54.4,40.1 -53.8,20.1 14.7,-71.4 20.4,-78.7 12.7,-16 41.1,-43.7 49.6,-57.7 z"
         id="jekyll-text"
         inkscape:connector-curvature="0"
         style="fill:#333333" />
    </g>
  </g>
</svg>
